<svg width="218" height="101" viewBox="0 0 218 101" fill="none" xmlns="http://www.w3.org/2000/svg">
<rect width="218" height="101" fill="#FFCE03"/>
<mask id="mask0" mask-type="alpha" maskUnits="userSpaceOnUse" x="30" y="0" width="188" height="101">
<rect x="30" width="188" height="101" rx="5" fill="url(#paint0_linear)"/>
</mask>
<g mask="url(#mask0)">
<path fill-rule="evenodd" clip-rule="evenodd" d="M264.523 -64.8238C261.301 -72.9648 258.344 -77.2067 255.97 -83.3853C249.594 -81.6032 244.427 -81.4578 235.978 -79.1788C230.057 -77.5767 223.724 -74.9976 219.14 -70.5675C212.738 -80.8082 202.601 -79.1034 202.601 -79.1034C202.601 -79.1034 192.223 -77.6386 189.319 -65.6332C183.646 -68.2728 176.962 -68.7187 170.946 -68.3763C162.214 -67.8883 157.261 -66.4146 150.637 -66.0979C150.329 -59.4824 148.855 -54.5294 148.359 -45.7888C148.016 -39.6703 148.479 -32.8663 151.23 -27.1333C138.736 -24.4089 137.229 -13.7316 137.229 -13.7316C137.229 -13.7316 135.464 -3.31145 146.193 3.08179C141.943 7.65758 139.458 13.8788 137.925 19.6972C135.697 28.1636 135.586 33.3308 133.838 39.7235C140.034 42.0632 144.293 45.0027 152.451 48.1566C157.953 50.282 164.285 51.8848 170.37 51.251C169.462 64.4648 179.677 68.8014 179.677 68.8014C179.677 68.8014 189.232 73.1465 198.135 64.5691C201.186 70.5335 206.773 75.0926 212.266 78.4778C219.722 83.0713 224.623 84.6826 230.237 88.2048C234.272 82.9521 238.325 79.7388 243.715 72.8408C247.76 67.6823 251.487 61.3498 252.189 54.5629C262.267 58.471 268.702 51.8816 268.702 51.8816C268.702 51.8816 275.609 45.1465 271.109 34.666C278.213 33.9551 284.751 29.8336 289.987 25.4207C296.671 19.7653 299.73 15.6094 304.837 11.3764C301.1 5.909 299.309 1.05011 294.441 -6.21689C291.065 -11.2729 286.634 -16.389 281.038 -19.3286C289.093 -28.1203 284.885 -37.3668 284.885 -37.3668C284.885 -37.3668 280.634 -47.393 267.695 -46.691C268.363 -52.8609 266.708 -59.2622 264.523 -64.8238ZM203.081 -75.9842C207.897 -75.9325 208.951 -74.4328 208.951 -74.4328C205.489 -74.0217 203.852 -70.9968 203.852 -70.9968C203.852 -70.9968 201.375 -73.3877 197.948 -72.7367C197.948 -72.7367 198.513 -74.4848 203.081 -75.9842ZM201.333 -69.1974C202.198 -68.5546 203.921 -65.5981 201.324 -64.9042C200.485 -64.6814 198.171 -65.0586 199.842 -68.0492C199.842 -68.0492 196.123 -68.4607 196.191 -64.3474C196.26 -60.217 201.753 -59.7968 203.527 -61.6734C203.527 -61.6734 200.811 -56.7462 206.595 -53.2925C211.06 -58.3224 206.98 -62.2131 206.98 -62.2131C209.234 -60.9533 214.35 -63.0182 213.159 -66.9687C211.976 -70.9107 208.557 -69.3941 208.557 -69.3941C211.059 -67.046 208.96 -65.9921 208.094 -65.9493C205.421 -65.8294 206.166 -69.1628 206.791 -70.0454C210.836 -75.7695 215.035 -70.7134 216.809 -67.9455C216.638 -67.7055 216.458 -67.4742 216.295 -67.2257C212.088 -61.1502 209.492 -51.5099 209.098 -42.7521C209.029 -41.1583 209.072 -39.5901 209.201 -38.0562C208.867 -39.453 208.438 -40.8584 207.915 -42.238C204.779 -50.4304 199.302 -58.7686 193.389 -63.225C193.055 -63.4735 192.704 -63.722 192.361 -63.9448C193.166 -67.0469 195.608 -73.5337 201.333 -69.1974ZM233.514 -2.03819C229.495 -1.0872 226.153 -4.24087 224.816 -5.76627C225.459 -6.95738 226.161 -5.98044 226.161 -5.98044V-5.99758C227.832 -3.401 232.006 -6.23721 233.959 -8.10523C234.568 -8.67934 234.962 -9.05636 235.407 -9.1249C235.682 -9.15916 236.624 -9.15911 236.976 -7.50522C237.061 -6.93964 236.967 -6.38264 236.899 -6.14271C236.83 -5.81708 236.719 -5.4486 236.564 -5.03728C236.153 -5.29438 235.536 -5.89427 236.136 -6.95683C235.433 -6.59696 235.099 -6.8969 234.859 -7.37679C234.67 -7.95951 235.202 -8.64503 235.665 -8.30223C235.39 -8.13086 235.322 -7.73667 235.759 -7.60811C236.444 -7.71091 236.487 -8.33647 235.999 -8.61928C235.562 -8.86781 235.279 -8.75642 234.756 -8.25086C234.593 -8.10519 234.242 -7.85671 234.645 -6.69983C234.911 -5.97142 235.245 -5.38012 236.822 -4.4717C237.027 -5.29434 237.31 -6.00558 237.438 -6.61399C237.438 -6.61399 237.824 -7.90794 236.796 -9.17624C236.539 -9.50189 236.273 -9.76755 235.656 -10.0589C233.916 -10.8731 231.414 -7.4798 228.689 -6.28023C227.789 -5.87753 227.078 -6.24604 226.564 -6.81163C228.578 -6.3745 230.069 -7.88262 230.746 -8.91948C231.543 -10.1448 232.948 -9.66489 232.948 -9.66489C232.374 -10.4447 231.243 -10.4791 231.243 -10.4791C231.243 -10.4791 231.791 -11.4731 231.405 -12.3729C231.405 -12.3729 231.097 -10.9161 229.649 -10.8562C228.406 -10.7963 226.367 -10.2822 225.707 -8.33702C225.51 -9.06542 225.57 -9.82808 226.35 -10.385C228.775 -12.1073 232.965 -12.5442 233.145 -14.4551C233.213 -15.1235 233.128 -15.4834 232.973 -15.8776C232.408 -17.403 231.097 -17.7373 231.097 -17.7373C230.505 -17.9344 229.743 -18.063 228.929 -18.2944C228.92 -16.4862 229.254 -15.895 229.751 -15.2951C230.531 -14.3438 230.934 -14.5409 231.14 -14.5923C231.842 -14.7808 232.091 -14.9779 232.091 -15.4749C232.099 -16.0319 231.534 -16.3233 231.097 -15.7835C230.985 -15.3464 231.362 -15.2093 231.637 -15.3464C231.705 -14.7808 230.84 -14.6695 230.437 -15.1408C230.146 -15.5864 230.068 -16.0234 230.72 -16.4347C229.511 -16.4605 229.297 -17.2917 229.288 -17.7802C229.726 -17.703 230.103 -17.6173 230.42 -17.5231C230.651 -17.4459 231.182 -17.2402 231.628 -16.8803C232.871 -15.7405 232.399 -14.9265 232.219 -14.7122C231.937 -14.3609 231.405 -14.2067 230.608 -13.9925C228.02 -13.2557 223.487 -11.1222 224.799 -8.38848L224.782 -8.40562C224.782 -8.40562 225.244 -7.32587 223.967 -7.35164C223.53 -9.24548 222.845 -13.9758 226.066 -16.7178C226.066 -16.7178 234.747 -23.667 243.102 -16.117C244.243 -4.91692 233.514 -2.03819 233.514 -2.03819ZM265.409 0.551363C268.931 -5.50695 261.818 -6.7927 259.916 -2.31963C259.916 -2.31963 255.237 -13.3228 267.773 -12.0797C267.773 -12.0797 274.603 -12.1564 272.333 -4.31565C272.333 -4.31565 276.026 -10.1854 285.092 -4.99197C285.092 -4.99197 275.863 -3.47566 269.291 4.19351C269.291 4.19351 281.383 8.65873 279.805 -0.613325C279.805 -0.613325 286.704 -0.535843 283.191 6.18229C283.191 6.18229 290.491 3.83468 293.902 9.83336C288.958 14.6576 282.599 10.3726 282.599 10.3726C284.117 17.8023 277.458 15.9767 277.458 15.9767C281.545 7.50188 268.691 8.44385 268.691 8.44385C272.882 17.6389 281.332 21.6498 281.332 21.6498C271.186 24.1343 269.257 17.4588 269.257 17.4588C269.275 25.6339 262.728 23.6626 262.728 23.6626C250.337 21.3997 257.877 12.111 257.877 12.111C258.477 16.9441 265.658 17.6643 263.953 10.8687C262.23 4.07318 250.979 11.3651 250.979 11.3651C255.512 14.4417 252.95 18.2377 252.95 18.2377C247.825 11.3306 242.41 12.2558 241.039 12.6328C240.713 10.8333 240.053 8.83657 238.879 6.65135C238.879 6.65135 236.316 2.06664 231.74 0.661042C236.385 0.729836 240.104 -2.73196 240.104 -2.73196C241.8 -4.36004 242.991 -5.97958 243.823 -7.51344C244.962 -6.80213 249.958 -4.29107 256.873 -9.57798C256.873 -9.57798 258.288 -5.21613 253.086 -3.51111C253.086 -3.51111 261.879 6.61824 265.409 0.551363ZM237.577 20.7563C226.968 25.5203 220.661 15.9395 220.661 15.9395C218.433 12.3403 220.403 8.0729 221.457 6.2477C222.417 6.59052 221.792 7.40457 221.792 7.40457L221.8 7.396C219.778 9.72675 223.677 12.9404 226.025 14.2945C226.736 14.7144 227.216 14.9887 227.396 15.3914C227.516 15.6485 227.782 16.5483 226.291 17.3537C225.777 17.5937 225.22 17.6536 224.963 17.6707C224.629 17.6793 224.243 17.6878 223.806 17.645C223.934 17.1737 224.346 16.4196 225.52 16.7024C224.988 16.1368 225.177 15.7255 225.571 15.3656C226.077 15.0143 226.882 15.34 226.685 15.8627C226.445 15.657 226.042 15.6999 226.051 16.154C226.342 16.7882 226.959 16.6511 227.088 16.0941C227.208 15.6142 227.019 15.3743 226.377 15.0058C226.205 14.9029 225.854 14.6201 224.868 15.3485C224.243 15.8026 223.772 16.291 223.335 18.0477C224.174 18.0306 224.946 18.0992 225.571 18.0393L225.58 18.0478C225.58 18.0478 226.925 18.0565 227.842 16.7111L227.851 16.7026C228.082 16.3684 228.253 16.0427 228.365 15.3658C228.665 13.472 224.697 12.0236 222.777 9.74403C222.143 8.98991 222.306 8.21011 222.691 7.5503C222.846 9.60693 224.705 10.6268 225.896 10.9782C227.293 11.3981 227.233 12.8806 227.233 12.8806C227.816 12.1094 227.533 11.0211 227.533 11.0211C227.533 11.0211 228.639 11.2525 229.384 10.6441C229.384 10.6441 227.91 10.764 227.439 9.38437C227.045 8.20178 225.965 6.38504 223.925 6.29924C224.551 5.91366 225.305 5.75944 226.059 6.34219C228.399 8.18471 229.993 12.0924 231.878 11.7326C232.546 11.5955 232.863 11.4156 233.198 11.1671C234.5 10.1902 234.449 8.83629 234.449 8.83629C234.483 8.20216 234.38 7.44806 234.38 6.60827C232.64 7.09663 232.169 7.58505 231.732 8.22773C231.047 9.23887 231.338 9.58166 231.441 9.75305C231.835 10.3872 232.084 10.55 232.563 10.4301C233.112 10.2759 233.223 9.65031 232.58 9.38463C232.126 9.39317 232.101 9.79593 232.315 10.0273C231.784 10.2501 231.449 9.45312 231.766 8.93042C232.118 8.52768 232.52 8.31346 233.112 8.83622C232.786 7.67078 233.532 7.23379 233.994 7.07956C234.046 7.52516 234.054 7.91079 234.063 8.24499C234.054 8.49349 234.003 9.05907 233.78 9.57321C233.035 11.0899 232.126 10.8671 231.869 10.7642C231.458 10.5928 231.158 10.1215 230.712 9.41881C229.29 7.1393 225.965 3.38579 223.72 5.42516V5.40803C223.72 5.40803 222.88 6.11066 222.511 5.02234C223.994 4.07123 228.69 1.50068 232.632 3.88314C232.623 3.89172 242.247 10.1221 237.577 20.7563ZM235.17 36.1038C235.17 36.1038 231.477 38.8029 228.229 34.3896C228.229 34.3896 221.357 45.9064 228.221 47.3721C235.076 48.8292 234.073 41.6738 229.231 41.2537C229.231 41.2537 238.237 33.3789 240.955 45.676C240.955 45.676 243.157 52.1459 235.008 52.4283C235.008 52.4283 241.735 54.0997 239.636 64.3399C239.636 64.3399 235.316 56.0446 225.967 52.1965C225.967 52.1965 225.497 65.0761 233.817 60.6805C233.817 60.6805 235.9 67.2704 228.41 66.0189C228.41 66.0189 232.926 72.2147 228.291 77.3475C222.172 74.1422 224.254 66.7642 224.254 66.7642C217.664 70.5258 217.321 63.636 217.321 63.636C226.653 64.8619 221.751 52.9504 221.751 52.9504C214.313 59.8054 213.14 69.0859 213.14 69.0859C207.621 60.2078 213.353 56.3091 213.353 56.3091C205.598 58.8709 205.427 52.0326 205.427 52.0326C203.712 39.5556 214.887 43.8237 214.887 43.8237C210.482 45.8972 212.034 52.9499 217.955 49.2054C223.884 45.4523 213.447 37.0368 213.447 37.0368C211.93 42.3068 207.525 41.0554 207.525 41.0554C212.65 33.789 209.744 28.8443 209.059 27.8674C210.618 27.0791 212.281 25.9138 213.96 24.2343C213.96 24.2343 218.005 20.0012 217.345 14.7996C218.682 19.5471 223.481 22.1867 223.481 22.1867C225.546 23.2751 227.457 23.9007 229.171 24.2265C228.888 25.2805 227.748 31.0133 235.17 36.1038ZM200.369 26.8558C192.742 18.1661 199.812 9.58862 199.812 9.58862C202.485 6.53809 207.001 7.18101 209.058 7.67814C209.263 9.11779 208.081 8.7064 208.081 8.7064L208.089 8.71498C205.244 7.53227 203.428 12.2281 202.871 14.876C202.7 15.6987 202.588 16.2385 202.271 16.5384C202.057 16.7355 201.277 17.2582 200.052 16.1013C199.666 15.6814 199.426 15.1672 199.34 14.9444C199.212 14.6273 199.1 14.2588 198.989 13.8389C199.478 13.8133 200.326 13.959 200.437 15.1673C200.797 14.4817 201.243 14.5332 201.714 14.7988C202.203 15.1674 202.16 16.0328 201.586 16.0071C201.706 15.7158 201.551 15.3558 201.114 15.5015C200.609 15.9728 200.926 16.5127 201.491 16.4613C201.988 16.427 202.16 16.17 202.314 15.4501C202.348 15.2445 202.503 14.8332 201.508 14.1133C200.874 13.6677 200.266 13.3677 198.458 13.5133C198.749 14.3017 198.921 15.0558 199.169 15.6299L199.161 15.6385C199.161 15.6385 199.589 16.9239 201.157 17.3782C201.551 17.4982 201.92 17.5582 202.58 17.4468C204.482 17.1384 204.61 12.9138 206.17 10.3773C206.684 9.53755 207.481 9.44333 208.227 9.60619C206.324 10.3945 205.947 12.4854 205.973 13.7279C206.025 15.1847 204.593 15.5874 204.593 15.5874C205.51 15.9045 206.462 15.2961 206.462 15.2961C206.462 15.2961 206.573 16.4187 207.396 16.9329C207.396 16.9329 206.821 15.5703 207.978 14.6878C208.972 13.9509 210.36 12.357 209.795 10.3861C210.36 10.866 210.746 11.5258 210.429 12.4256C209.418 15.2363 206.213 17.9611 207.156 19.6408C207.482 20.2406 207.756 20.4806 208.099 20.7206C209.435 21.6461 210.695 21.1749 210.695 21.1749C211.312 21.0035 211.998 20.6779 212.803 20.4037C211.783 18.904 211.166 18.6127 210.429 18.407C209.238 18.0727 209.015 18.4497 208.887 18.6125C208.407 19.1781 208.321 19.4694 208.596 19.8808C208.913 20.3521 209.538 20.2579 209.59 19.5723C209.435 19.1439 209.041 19.2467 208.904 19.5209C208.527 19.0924 209.17 18.5183 209.769 18.6554C210.267 18.8611 210.584 19.1782 210.275 19.898C211.286 19.2297 211.938 19.7953 212.22 20.198C211.818 20.378 211.458 20.5151 211.141 20.6093C210.909 20.6864 210.352 20.8149 209.787 20.7806C208.107 20.5406 208.047 19.6065 208.056 19.3238C208.09 18.8782 208.441 18.4583 208.981 17.8156C210.695 15.7419 213.205 11.4146 210.566 9.90623L210.592 9.9148C210.592 9.9148 209.538 9.25491 210.772 8.51802C212.246 9.82062 215.682 13.3942 214.671 17.576C214.671 17.576 211.724 28.356 200.369 26.8558ZM183.666 -6.96807C189.313 -16.7796 199.845 -12.6744 199.845 -12.6744C203.315 -11.2089 204.395 -7.36977 204.73 -5.11604C203.547 -4.53338 203.53 -5.71595 203.53 -5.71595L203.521 -5.70738C203.632 -8.78375 198.585 -8.84399 195.912 -8.4328C195.089 -8.29574 194.54 -8.22721 194.146 -8.41575C193.898 -8.5443 193.127 -9.09278 193.786 -10.6438C194.035 -11.1494 194.429 -11.5607 194.609 -11.7235C194.866 -11.9463 195.166 -12.1776 195.526 -12.4347C195.723 -11.9805 195.877 -11.1407 194.789 -10.618C195.56 -10.5152 195.672 -10.0781 195.586 -9.54682C195.406 -8.95555 194.583 -8.69851 194.403 -9.23839C194.72 -9.2298 195.003 -9.51258 194.72 -9.86393C194.095 -10.1639 193.709 -9.67546 193.941 -9.16986C194.155 -8.71567 194.455 -8.63853 195.175 -8.75847C195.38 -8.79273 195.826 -8.79271 196.151 -9.97526C196.348 -10.7208 196.408 -11.3977 195.637 -13.0431C195.003 -12.4947 194.36 -12.0748 193.906 -11.6378C193.906 -11.6378 192.852 -10.7895 192.972 -9.16134C192.989 -8.75001 193.067 -8.38153 193.409 -7.7988C194.369 -6.13631 198.362 -7.49005 201.285 -6.91576C202.253 -6.73576 202.621 -6.02449 202.733 -5.26182C201.327 -6.77008 199.237 -6.39314 198.08 -5.92189C196.734 -5.38209 195.852 -6.57327 195.852 -6.57327C195.877 -5.60494 196.786 -4.91935 196.786 -4.91935C196.786 -4.91935 195.775 -4.42238 195.578 -3.4712C195.578 -3.4712 196.649 -4.49089 197.883 -3.71959C198.928 -3.05113 200.908 -2.3055 202.553 -3.52225C202.313 -2.81958 201.825 -2.22833 200.856 -2.21981C197.883 -2.17712 194.198 -4.21679 192.955 -2.75151C192.51 -2.23738 192.381 -1.88605 192.279 -1.49186C191.876 0.0934413 192.767 1.10466 192.767 1.10466C193.136 1.61027 193.693 2.15016 194.224 2.80146C195.269 1.32759 195.329 0.650617 195.261 -0.120623C195.166 -1.34603 194.729 -1.42318 194.524 -1.49175C193.83 -1.74029 193.53 -1.7146 193.238 -1.32043C192.913 -0.857696 193.213 -0.300685 193.881 -0.48917C194.215 -0.789077 193.992 -1.11473 193.675 -1.15758C193.95 -1.65459 194.721 -1.26036 194.789 -0.643373C194.772 -0.112072 194.592 0.290674 193.813 0.264926C194.789 0.967658 194.49 1.78173 194.224 2.18447C193.907 1.86739 193.65 1.59316 193.444 1.31893C193.298 1.12183 192.973 0.659073 192.818 0.110628C192.45 -1.54326 193.298 -1.92884 193.572 -2.01452C194.001 -2.13447 194.524 -1.95449 195.303 -1.6888C197.849 -0.806031 202.785 0.0340137 203.264 -2.96521L203.281 -2.94808C203.281 -2.94808 203.538 -4.26774 204.798 -3.1451C204.344 -1.90257 202.133 3.42742 197.335 3.75281C197.335 3.75281 186.092 4.19783 183.666 -6.96807ZM205.269 -11.1916L205.878 -10.8574L204.926 -11.8086C206.075 -10.9517 207.54 -10.2917 209.417 -9.97458C208.885 -9.6147 208.363 -9.19483 207.891 -8.72355C207.429 -8.26083 207.017 -7.76383 206.666 -7.24112C206.409 -8.81788 205.912 -10.1204 205.269 -11.1916ZM219.186 2.57135C216.761 4.99634 212.819 4.99614 210.394 2.57091C207.969 0.145673 207.977 -3.78763 210.402 -6.21262C212.827 -8.6376 216.761 -8.64597 219.186 -6.22073C221.611 -3.7955 221.611 0.146372 219.186 2.57135ZM224.49 -2.90415C226.042 -1.21592 227.644 -0.230366 229.195 0.258159C227.61 0.232369 225.845 0.626468 223.908 1.63755C224.473 0.180798 224.662 -1.37881 224.49 -2.90415ZM218.33 7.26729C217.13 9.61521 216.839 11.7061 217.079 13.5399C216.573 11.6632 215.382 9.70081 213.145 7.78975C214.876 8.08119 216.676 7.9099 218.33 7.26729ZM215.004 -12.4251C214.181 -13.2992 215.244 -13.6934 215.244 -13.6934L215.235 -13.6848C218.183 -14.593 216.58 -19.3833 215.32 -21.7742C214.926 -22.5112 214.669 -22.9911 214.72 -23.4367C214.763 -23.7195 215.02 -24.6106 216.7 -24.5077C217.265 -24.4391 217.78 -24.1992 218.002 -24.0792C218.294 -23.9078 218.619 -23.7021 218.979 -23.445C218.611 -23.1108 217.865 -22.691 217.008 -23.548C217.171 -22.7853 216.786 -22.5368 216.263 -22.4426C215.654 -22.4169 215.132 -23.111 215.586 -23.4623C215.68 -23.1624 216.032 -22.9824 216.28 -23.368C216.366 -24.0536 215.766 -24.2593 215.363 -23.8737C215.012 -23.5223 215.037 -23.2224 215.38 -22.5711C215.483 -22.3826 215.637 -21.9713 216.854 -22.0569C217.625 -22.1083 218.285 -22.2711 219.588 -23.5392C218.859 -23.9592 218.242 -24.422 217.685 -24.7219C217.685 -24.7219 216.537 -25.4418 215.046 -24.7906C214.66 -24.6278 214.343 -24.4479 213.898 -23.9337C212.647 -22.477 215.235 -19.152 215.646 -16.2041C215.792 -15.2187 215.244 -14.636 214.558 -14.2932C215.526 -16.1184 214.481 -17.9695 213.658 -18.895C212.698 -19.9919 213.547 -21.2173 213.547 -21.2173C212.63 -20.8831 212.295 -19.7948 212.295 -19.7948C212.295 -19.7948 211.481 -20.5918 210.513 -20.4633C210.513 -20.4633 211.833 -19.7777 211.499 -18.3638C211.216 -17.1556 211.173 -15.0389 212.861 -13.882C212.116 -13.8906 211.396 -14.1649 211.07 -15.0561C210.05 -17.8583 210.779 -22.0144 208.988 -22.7086C208.353 -22.9485 207.976 -22.9657 207.565 -22.9314C205.937 -22.7944 205.277 -21.6205 205.277 -21.6205C204.909 -21.0978 204.592 -20.4037 204.146 -19.6839C205.886 -19.1782 206.545 -19.341 207.257 -19.658C208.371 -20.155 208.311 -20.592 208.311 -20.7977C208.311 -21.5346 208.191 -21.826 207.711 -21.9631C207.171 -22.1259 206.751 -21.6547 207.145 -21.0891C207.539 -20.8662 207.771 -21.1833 207.711 -21.5004C208.276 -21.3975 208.148 -20.5492 207.599 -20.275C207.085 -20.1207 206.64 -20.155 206.417 -20.9092C206.074 -19.7437 205.209 -19.7695 204.729 -19.8895C204.926 -20.2922 205.114 -20.6179 205.294 -20.9006C205.431 -21.1063 205.774 -21.569 206.237 -21.8946C207.668 -22.7772 208.319 -22.1088 208.482 -21.8774C208.739 -21.5175 208.748 -20.9605 208.748 -20.1378C208.756 -17.4385 209.579 -12.5025 212.57 -13.0251L212.544 -13.0165C212.544 -13.0165 213.795 -13.1878 213.298 -11.7996C211.902 -11.8254 206.289 -12.177 204.369 -16.4618C204.369 -16.4618 200.127 -26.7366 209.707 -32.6318C220.779 -30.6089 220.539 -19.4859 220.539 -19.4859C220.351 -15.6983 216.966 -13.4276 215.004 -12.4251ZM153.124 -31.7177C152.181 -34.1172 151.05 -41.1269 152.172 -49.9618C153.26 -58.5568 153.731 -63.0042 153.731 -63.0042C153.731 -63.0042 158.187 -63.4838 166.782 -64.5717C175.608 -65.6853 182.626 -64.5623 185.026 -63.6196C187.434 -62.6683 192.567 -61.734 198.137 -52.9759C205.567 -41.3127 205.122 -38.8276 205.859 -34.2001C205.928 -33.7888 205.988 -33.3689 206.031 -32.9319C203.957 -31.1153 201.541 -27.8248 200.907 -22.1177C200.907 -22.1177 200.444 -17.2675 203.118 -13.6511C199.305 -16.6763 194.009 -16.0767 194.009 -16.0767C191.592 -15.7683 189.621 -15.1343 188.01 -14.3632C187.496 -15.6828 184.977 -20.5675 176.356 -20.5165C176.356 -20.5165 177.855 -24.8439 183.04 -23.0869C183.04 -23.0869 182.096 -36.4551 175.635 -33.7304C169.174 -31.0228 174.076 -25.7096 178.301 -28.1345C178.301 -28.1345 175.413 -16.5233 166.15 -25.0673C166.15 -25.0673 160.639 -29.1209 167.177 -34.0136C167.177 -34.0136 160.691 -31.5374 156.568 -41.1438C156.568 -41.1438 164.855 -36.7987 174.727 -38.992C174.727 -38.992 167.751 -49.8239 163.432 -41.4605C163.432 -41.4605 157.965 -45.6769 164.82 -48.9329C164.82 -48.9329 157.57 -51.4355 158.444 -58.2908C165.299 -59.1646 167.811 -51.9234 167.811 -51.9234C171.067 -58.7787 175.283 -53.3112 175.283 -53.3112C166.92 -48.9927 177.752 -42.0168 177.752 -42.0168C179.936 -51.8799 175.6 -60.1752 175.6 -60.1752C185.198 -56.0443 182.73 -49.5661 182.73 -49.5661C187.623 -56.1042 191.676 -50.5939 191.676 -50.5939C200.212 -41.3215 188.609 -38.4428 188.609 -38.4428C191.025 -42.6588 185.721 -47.5693 183.005 -41.0996C180.288 -34.6471 193.657 -33.7038 193.657 -33.7038C191.891 -38.8797 196.218 -40.3791 196.218 -40.3791C196.15 -30.4216 202.706 -28.6131 202.706 -28.6131C202.706 -28.6131 199.011 -62.0421 178.719 -61.5119C164.4 -61.127 156.696 -60.3133 156.464 -60.2876L156.456 -60.2962L156.447 -60.2876L156.456 -60.279C156.43 -60.0477 155.608 -52.3353 155.232 -38.0246C154.744 -19.3522 182.98 -14.7319 187.513 -14.1061C185.602 -13.1036 184.249 -11.8868 183.315 -10.7643C183.049 -10.8071 182.792 -10.8414 182.543 -10.8843C177.907 -11.6129 175.431 -11.176 163.759 -18.5976C155.01 -24.1767 154.075 -29.3097 153.124 -31.7177ZM140.348 -13.2516C141.847 -17.8189 143.596 -18.3844 143.596 -18.3844C142.944 -14.9567 145.335 -12.4801 145.335 -12.4801C145.335 -12.4801 142.311 -10.8435 141.899 -7.38153C141.899 -7.38153 140.4 -8.43563 140.348 -13.2516ZM146.287 -9.54077C147.169 -10.1663 150.503 -10.9116 150.383 -8.23803C150.34 -7.37253 149.286 -5.27311 146.938 -7.77546C146.938 -7.77546 145.422 -4.35639 149.363 -3.17363C153.314 -1.9823 155.379 -7.09806 154.119 -9.35185C154.119 -9.35185 158.01 -5.27267 163.04 -9.73701C159.586 -15.5215 154.659 -12.8052 154.659 -12.8052C156.527 -14.5704 156.115 -20.0719 151.985 -20.1407C147.872 -20.2095 148.283 -16.4904 148.283 -16.4904C151.274 -18.1612 151.651 -15.8475 151.428 -15.0077C150.734 -12.4113 147.778 -14.1338 147.126 -14.9908C142.49 -21.1181 150.236 -23.4999 152.97 -24.1254C153.15 -23.8597 153.33 -23.6112 153.519 -23.3541C157.975 -17.4411 166.313 -11.9649 174.505 -8.82808C176.416 -8.09959 178.379 -7.55963 180.316 -7.16534C178.319 -7.41395 176.271 -7.50832 174.188 -7.39702C165.431 -6.95187 155.807 -4.30445 149.749 -0.0458196C149.406 0.194104 149.072 0.442597 148.738 0.708229C146.09 -0.928642 140.306 -5.30785 146.287 -9.54077ZM149.657 43.2548C141.816 39.561 137.728 37.7356 137.728 37.7356C137.728 37.7356 138.645 33.3567 140.264 24.8475C141.918 16.0983 145.157 9.77435 146.793 7.77779C148.438 5.7898 150.915 1.18822 160.958 -1.41633C174.343 -4.87764 176.571 -3.69497 181.207 -2.96634C181.627 -2.90634 182.072 -2.82062 182.535 -2.71777C183.726 -0.258317 186.083 2.74963 190.771 5.07214C190.771 5.07214 200.763 9.83718 205.415 0.882503C205.852 2.41643 206.684 3.86468 207.892 5.07301C207.935 5.11586 207.969 5.15014 208.012 5.19299C197.06 2.4674 194.824 13.9587 194.824 13.9587C194.396 16.3067 194.396 18.3633 194.636 20.1286C193.325 20.1885 187.764 20.9852 185.125 29.3144C185.125 29.3144 181.466 26.5634 184.747 22.1676C184.747 22.1676 171.739 18.9449 172.331 25.9289C172.922 32.9129 179.486 29.8797 178.475 25.1322C178.475 25.1322 188.63 31.4483 177.653 37.6262C177.653 37.6262 172.1 41.6192 169.46 33.8896C169.46 33.8896 169.812 40.8222 159.4 41.79C159.4 41.79 166.084 35.2434 167.052 25.1745C167.052 25.1745 154.601 28.473 161.217 35.1574C161.217 35.1574 155.518 39.0562 154.532 31.5408C154.532 31.5408 149.914 37.6505 143.667 34.7109C144.943 27.9155 152.613 27.7702 152.613 27.7702C147.094 22.5598 153.589 20.2293 153.589 20.2293C155.132 29.5185 165.106 21.3611 165.106 21.3611C156.383 16.2362 147.162 17.8125 147.162 17.8125C154.052 9.94619 159.45 14.2997 159.45 14.2997C154.746 7.62395 161.232 5.47339 161.232 5.47339C172.681 0.212429 171.841 12.1408 171.841 12.1408C168.576 8.533 162.278 12.0718 167.591 16.6481C172.896 21.2329 177.917 8.79055 177.917 8.79055C172.433 8.87597 172.355 4.29139 172.355 4.29139C181.799 7.42824 185.552 1.75556 185.552 1.75556C185.552 1.75556 152.603 -5.04157 146.862 14.4276C142.801 28.1725 141.199 35.7562 141.165 35.979L141.147 35.979L141.156 35.9876L141.156 36.0048L141.165 35.9962C141.37 36.0819 148.457 39.2443 161.963 44.0095C179.727 50.2917 192.897 24.3532 194.705 20.5742C195.065 22.7165 195.785 24.4133 196.547 25.7073C196.427 25.9472 196.316 26.1786 196.205 26.41C194.071 30.5831 193.729 33.0853 183.077 41.8854C175.074 48.5005 169.889 47.8061 167.31 47.9688C164.731 48.1315 157.721 47.0343 149.657 43.2548ZM187.029 65.9225C187.029 65.9225 185.615 67.0964 180.945 65.905C176.926 63.2741 176.831 61.4488 176.831 61.4488C179.976 62.9486 182.975 61.2863 182.975 61.2863C182.975 61.2863 183.781 64.6284 187.029 65.9225ZM186.06 61.1151C185.692 60.1124 185.829 56.7019 188.383 57.5075C189.205 57.7646 190.962 59.3329 187.937 60.9523C187.937 60.9523 190.851 63.3005 193.01 59.7872C195.178 56.2825 190.773 52.9745 188.271 53.6085C188.271 53.6085 193.207 50.9008 190.19 44.885C183.72 46.7271 185.066 52.2029 185.066 52.2029C183.84 49.932 178.425 48.9206 177.294 52.8795C176.171 56.8471 179.873 57.4128 179.873 57.4128C179.025 54.0793 181.356 54.3194 182.11 54.7479C184.441 56.0848 182.016 58.4927 181.022 58.9039C173.695 61.8942 173.583 53.2135 173.712 50.6685C174.277 50.5142 174.843 50.36 175.391 50.1715C182.384 47.7553 190.173 41.5087 195.674 34.6879C197.011 33.0255 198.159 31.2774 199.153 29.4779C198.219 31.5088 197.43 33.6511 196.874 35.9048C194.775 44.3454 194.509 54.2258 196.755 61.2527C194.604 63.3178 188.674 68.1506 186.06 61.1151ZM238.205 74.1002C232.396 80.5269 229.465 83.903 229.465 83.903C229.465 83.903 225.549 81.7519 217.862 77.7325C209.978 73.6017 204.862 68.6741 203.431 66.5232C201.999 64.3722 198.323 60.6615 198.751 50.2927C199.324 36.4876 201.107 34.7053 203.146 30.4722C203.309 30.138 203.497 29.7781 203.694 29.4096C205.151 29.3068 206.874 28.9213 208.75 28.0216C207.062 31.2864 193.91 57.9277 209.815 68.4002C221.787 76.276 228.582 80.0039 228.779 80.1154L228.788 80.1239L228.805 80.1239L228.796 80.1154C228.942 79.9354 234.023 74.0828 242.515 62.5404C253.843 47.1506 232.05 26.626 229.471 24.2865C231.699 24.6636 233.592 24.5352 235.109 24.2011C235.281 24.3553 235.452 24.5096 235.606 24.6638C238.991 27.9289 241.279 28.983 246.61 41.7344C250.612 51.3065 248.445 56.0624 247.853 58.5731C247.254 61.0925 244.169 67.485 238.205 74.1002ZM266.671 49.8506C263.124 52.3869 261.538 51.8641 261.538 51.8641C263.852 49.7047 263.432 46.6112 263.432 46.6112C263.432 46.6112 266.525 47.0313 268.685 44.7177C268.685 44.7177 269.216 46.2944 266.671 49.8506ZM264.306 43.9376C263.337 43.929 260.484 42.6863 262.018 40.7926C262.515 40.1756 264.408 39.2074 264.786 42.2924C264.786 42.2924 267.725 40.6043 265.479 37.6221C263.217 34.6399 258.967 37.279 258.667 39.6013C258.667 39.6013 258.015 34.5282 251.923 35.1021C251.357 41.1862 256.422 41.8463 256.422 41.8463C254.108 42.1376 251.469 46.3878 254.451 48.6502C257.425 50.9041 259.122 47.9564 259.122 47.9564C256.037 47.5792 257.005 45.6854 257.622 45.1884C259.507 43.6632 260.758 46.5082 260.767 47.4766C260.879 53.8607 255.077 52.395 252.292 51.3237C251.966 43.9541 248.281 34.7677 243.379 27.5692C242.127 25.7353 240.705 24.0557 239.197 22.5303C239.214 22.5131 239.231 22.496 239.248 22.496C240.902 24.0471 242.727 25.4954 244.733 26.7466C251.803 31.1945 260.646 34.4512 267.862 34.7601C268.873 37.091 271.298 44.058 264.306 43.9376ZM293.91 -0.595472C298.213 6.9286 300.509 10.7677 300.509 10.7677C300.509 10.7677 297.245 13.8268 291.024 19.8593C284.64 26.0717 278.359 29.3877 275.874 30.0731C273.389 30.7585 268.71 33.1063 258.992 29.4552C246.052 24.6044 244.921 22.3592 241.536 19.0941C241.339 18.9141 241.15 18.7085 240.945 18.5028C241.27 17.0632 241.424 15.2808 241.124 13.1813C244.346 16.4206 265.025 36.2082 279.644 24.589C290.861 15.686 296.525 10.3991 296.687 10.2363H296.705L296.696 10.2277L296.705 10.2191L296.696 10.2277C296.576 10.022 292.599 3.37205 284.278 -8.29118C273.394 -23.5793 247.85 -10.084 244.054 -7.95046C245.039 -9.92991 245.45 -11.7466 245.553 -13.2376C245.75 -13.349 245.947 -13.4604 246.144 -13.5547C250.292 -15.7482 252.006 -17.5991 265.785 -18.6781C276.128 -19.4917 279.976 -15.9524 282.17 -14.5983C284.372 -13.2528 289.488 -8.3252 293.91 -0.595472ZM277.532 -40.2121C277.532 -40.2121 279.366 -40.1263 281.997 -36.0901C283.18 -31.4283 282.015 -30.023 282.015 -30.023C280.721 -33.2537 277.37 -34.068 277.37 -34.068C277.37 -34.068 279.041 -37.0757 277.532 -40.2121ZM274.988 -36.0219C274.585 -35.0364 272.168 -32.6029 270.832 -34.9338C270.403 -35.6879 270.163 -38.0188 273.496 -37.1702C273.496 -37.1702 272.931 -40.8722 268.963 -39.7498C265.004 -38.6189 266.016 -33.203 268.287 -31.9775C268.287 -31.9775 262.819 -33.3317 260.977 -26.862C266.984 -23.8368 269.692 -28.7725 269.692 -28.7725C269.067 -26.2789 272.375 -21.8741 275.879 -24.0248C279.384 -26.1927 277.036 -29.1064 277.036 -29.1064C275.417 -26.0815 273.857 -27.8297 273.591 -28.6609C272.786 -31.2146 276.196 -31.3516 277.207 -30.9745C283.797 -28.5319 279.967 -23.1763 277.756 -20.7427C277.448 -20.8455 277.148 -20.957 276.831 -21.0512C269.718 -23.0911 259.761 -22.4575 251.329 -20.0242C249.692 -19.553 248.107 -18.9618 246.598 -18.2763C248.218 -19.2274 249.803 -20.2985 251.303 -21.5239C258.098 -27.0678 264.293 -34.8913 266.675 -41.9008C266.829 -42.3807 266.975 -42.8692 267.095 -43.349C270.008 -43.4346 277.849 -43.0486 274.988 -36.0219ZM264.421 -49.9647C264.275 -47.3853 264.995 -42.2094 258.432 -34.1718C249.692 -23.4606 247.207 -23.1008 243.025 -20.9416C242.562 -20.7016 242.057 -20.4532 241.508 -20.2132C239.152 -21.4902 235.561 -22.5101 230.531 -21.6277C230.531 -21.6277 219.382 -19.4946 221.422 -8.97136C220.265 -10.0597 218.903 -10.8053 217.455 -11.2082C226.735 -16.0322 221.721 -26.0157 221.721 -26.0157C219.373 -30.5232 216.399 -32.76 213.94 -33.8655C213.794 -34.5254 213.666 -35.1681 213.571 -35.7594C212.817 -40.3868 211.617 -42.6149 215.002 -56.0085C217.538 -66.0687 222.122 -68.5793 224.101 -70.2331C226.081 -71.8869 232.396 -75.1514 241.137 -76.8648C249.629 -78.5354 254.008 -79.4864 254.008 -79.4864C254.008 -79.4864 255.859 -75.4073 259.587 -67.5834C263.426 -59.5452 264.566 -52.544 264.421 -49.9647Z" fill="white" fill-opacity="0.18"/>
<path fill-rule="evenodd" clip-rule="evenodd" d="M180.471 14.4979C185.904 13.1956 189.374 16.9577 192.947 9.25409C184.944 6.40868 185.209 11.5246 180.471 14.4979Z" fill="white" fill-opacity="0.18"/>
<path fill-rule="evenodd" clip-rule="evenodd" d="M220.937 37.1918C221.194 31.6046 225.787 29.3254 219.385 23.7465C214.415 30.6359 219.403 31.8187 220.937 37.1918Z" fill="white" fill-opacity="0.18"/>
<path d="M203.901 22.9662C204.601 22.2656 204.601 21.1298 203.901 20.4292C203.2 19.7286 202.064 19.7285 201.364 20.4291C200.663 21.1296 200.663 22.2654 201.364 22.966C202.065 23.6666 203.2 23.6667 203.901 22.9662Z" fill="white" fill-opacity="0.18"/>
</g>
<path fill-rule="evenodd" clip-rule="evenodd" d="M184.263 64.8684C191.094 64.8684 196.632 59.3309 196.632 52.5C196.632 45.6691 191.094 40.1316 184.263 40.1316C177.432 40.1316 171.895 45.6691 171.895 52.5C171.895 59.3309 177.432 64.8684 184.263 64.8684ZM184.263 58.122C187.368 58.122 189.885 55.605 189.885 52.5C189.885 49.3951 187.368 46.878 184.263 46.878C181.158 46.878 178.641 49.3951 178.641 52.5C178.641 55.605 181.158 58.122 184.263 58.122Z" fill="white"/>
<path d="M188.178 63.8494C187.222 62.8932 187.222 61.343 188.178 60.3868C189.134 59.4306 190.685 59.4306 191.641 60.3868L193.102 61.8484C194.059 62.8046 194.059 64.3548 193.102 65.311C192.146 66.2672 190.596 66.2672 189.64 65.311L188.178 63.8494Z" fill="#FFCE03"/>
<path fill-rule="evenodd" clip-rule="evenodd" d="M192.551 62.4003L191.089 60.9386C190.438 60.2872 189.381 60.2872 188.73 60.9386C188.079 61.59 188.079 62.6462 188.73 63.2976L190.192 64.7592C190.843 65.4106 191.899 65.4106 192.551 64.7592C193.202 64.1078 193.202 63.0517 192.551 62.4003ZM188.178 60.3868C187.222 61.343 187.222 62.8932 188.178 63.8494L189.64 65.311C190.596 66.2672 192.146 66.2672 193.102 65.311C194.059 64.3548 194.059 62.8046 193.102 61.8484L191.641 60.3868C190.685 59.4306 189.134 59.4306 188.178 60.3868Z" fill="white"/>
<path fill-rule="evenodd" clip-rule="evenodd" d="M44.5 76C57.4787 76 68 65.4787 68 52.5C68 39.5213 57.4787 29 44.5 29C31.5213 29 21 39.5213 21 52.5C21 65.4787 31.5213 76 44.5 76ZM44.5 66.6667C52.3241 66.6667 58.6667 60.324 58.6667 52.5C58.6667 44.676 52.3241 38.3333 44.5 38.3333C36.676 38.3333 30.3334 44.676 30.3334 52.5C30.3334 60.324 36.676 66.6667 44.5 66.6667Z" fill="white" fill-opacity="0.18"/>
<path d="M30.047 45.0782C27.228 50.863 28.7046 56.7855 29.7953 59.0237C33.017 66.4613 40.5342 68.4928 43.8901 68.5789H60.5019C60.9046 64.8601 59.9985 60.8314 51.1892 61.0897H43.8901C36.591 61.0897 35.7521 53.9448 36.0876 51.2762C36.2554 48.9519 38.0509 44.2518 43.8901 44.0452C49.7294 43.8386 51.6926 48.3493 51.9443 50.5014H40.1147V55.9247H59.2434C59.4448 54.6851 59.4951 53.6865 59.4951 53.3422C58.9917 36.5559 46.1554 35.5229 40.1147 36.8142C37.9334 37.1585 32.866 39.2934 30.047 45.0782Z" fill="white"/>
<path d="M142.403 43.5341C142.615 43.1746 142.922 42.9349 143.325 42.815C143.728 42.6951 144.226 42.6352 144.819 42.6352C145.433 42.6352 145.921 42.6852 146.281 42.785C146.663 42.8849 146.938 43.0048 147.108 43.1446C147.298 43.2844 147.436 43.4942 147.521 43.7738C147.648 44.0935 147.711 44.6028 147.711 45.302V61.932C147.711 62.4114 147.69 62.761 147.648 62.9807C147.627 63.2004 147.531 63.4601 147.362 63.7598C147.065 64.2991 146.239 64.5688 144.882 64.5688C144.056 64.5688 143.484 64.5088 143.166 64.389C142.848 64.2691 142.583 64.0794 142.371 63.8197C137.604 57.8269 134.467 53.9116 132.963 52.0738V61.932C132.963 62.4114 132.942 62.761 132.899 62.9807C132.878 63.2004 132.783 63.4601 132.613 63.7598C132.316 64.2991 131.49 64.5688 130.134 64.5688C128.82 64.5688 128.015 64.2991 127.718 63.7598C127.549 63.4601 127.443 63.1904 127.4 62.9507C127.379 62.711 127.368 62.3614 127.368 61.902V45.1821C127.368 44.4231 127.464 43.8737 127.654 43.5341C127.866 43.1746 128.174 42.9349 128.576 42.815C128.979 42.6951 129.498 42.6352 130.134 42.6352C130.77 42.6352 131.267 42.6951 131.628 42.815C132.009 42.9149 132.274 43.0347 132.422 43.1746C132.507 43.2345 132.751 43.4942 133.153 43.9536C137.625 49.6867 140.613 53.4722 142.117 55.3099V45.1821C142.117 44.4231 142.212 43.8737 142.403 43.5341Z" fill="white"/>
<path d="M164.009 44.1634L172.591 60.8832C172.951 61.5624 173.132 62.0718 173.132 62.4114C173.132 63.1305 172.517 63.7797 171.288 64.359C170.567 64.6986 169.995 64.8684 169.572 64.8684C169.169 64.8684 168.83 64.7785 168.554 64.5987C168.3 64.419 168.109 64.2292 167.982 64.0294C167.876 63.8297 167.717 63.53 167.505 63.1305L165.853 59.8944H157.048L155.395 63.1305C155.183 63.53 155.014 63.8197 154.886 63.9995C154.78 64.1792 154.59 64.369 154.314 64.5688C154.06 64.7486 153.721 64.8384 153.297 64.8384C152.894 64.8384 152.333 64.6687 151.612 64.3291C150.383 63.7697 149.769 63.1305 149.769 62.4114C149.769 62.0718 149.949 61.5624 150.309 60.8832L158.891 44.1334C159.125 43.674 159.474 43.3044 159.94 43.0247C160.428 42.7451 160.936 42.6053 161.466 42.6053C162.61 42.6053 163.458 43.1246 164.009 44.1634ZM161.434 51.3547L159.336 55.4598H163.564L161.434 51.3547Z" fill="white"/>
<path fill-rule="evenodd" clip-rule="evenodd" d="M87.1711 66.1052C93.6604 66.1052 98.9211 60.5677 98.9211 53.7368C98.9211 46.9059 93.6604 41.3684 87.1711 41.3684C80.6817 41.3684 75.4211 46.9059 75.4211 53.7368C75.4211 60.5677 80.6817 66.1052 87.1711 66.1052ZM87.1711 59.3588C90.1208 59.3588 92.512 56.8418 92.512 53.7368C92.512 50.6319 90.1208 48.1148 87.1711 48.1148C84.2214 48.1148 81.8302 50.6319 81.8302 53.7368C81.8302 56.8418 84.2214 59.3588 87.1711 59.3588Z" fill="white"/>
<path fill-rule="evenodd" clip-rule="evenodd" d="M113.763 66.1052C120.594 66.1052 126.132 60.5677 126.132 53.7368C126.132 46.9059 120.594 41.3684 113.763 41.3684C106.932 41.3684 101.395 46.9059 101.395 53.7368C101.395 60.5677 106.932 66.1052 113.763 66.1052ZM113.763 59.3588C116.868 59.3588 119.385 56.8418 119.385 53.7368C119.385 50.6319 116.868 48.1148 113.763 48.1148C110.658 48.1148 108.141 50.6319 108.141 53.7368C108.141 56.8418 110.658 59.3588 113.763 59.3588Z" fill="white"/>
<path d="M90.8977 64.3039C89.9416 63.3478 89.9416 61.7975 90.8977 60.8413C91.8539 59.8852 93.4042 59.8852 94.3603 60.8413L95.8219 62.3029C96.7781 63.2591 96.7781 64.8094 95.8219 65.7655C94.8658 66.7217 93.3155 66.7217 92.3593 65.7655L90.8977 64.3039Z" fill="#FFCE03"/>
<path fill-rule="evenodd" clip-rule="evenodd" d="M95.2701 62.8548L93.8085 61.3932C93.1571 60.7418 92.101 60.7418 91.4496 61.3932C90.7982 62.0446 90.7982 63.1007 91.4496 63.7521L92.9112 65.2137C93.5626 65.8651 94.6187 65.8651 95.2701 65.2137C95.9215 64.5623 95.9215 63.5062 95.2701 62.8548ZM90.8977 60.8413C89.9416 61.7975 89.9416 63.3478 90.8977 64.3039L92.3593 65.7655C93.3155 66.7217 94.8658 66.7217 95.8219 65.7655C96.7781 64.8094 96.7781 63.2591 95.8219 62.3029L94.3603 60.8413C93.4042 59.8852 91.8539 59.8852 90.8977 60.8413Z" fill="white"/>
<defs>
<linearGradient id="paint0_linear" x1="30" y1="58.58" x2="218.926" y2="42.0256" gradientUnits="userSpaceOnUse">
<stop stop-color="#FFCE00"/>
<stop offset="1" stop-color="#FFD72F"/>
</linearGradient>
</defs>
</svg>
