<svg width="126" height="109" viewBox="0 0 126 109" fill="none" xmlns="http://www.w3.org/2000/svg">
<g id="Group 3">
<path id="Oval 4 Copy 2" fill-rule="evenodd" clip-rule="evenodd" d="M38 109C58.9868 109 76 91.9868 76 71C76 50.0132 58.9868 33 38 33C17.0132 33 0 50.0132 0 71C0 91.9868 17.0132 109 38 109Z" fill="#F5C93C"/>
<g id="people 1">
<g clip-path="url(#clip0)">
<path id="Vector" d="M115.768 66.4597C116.82 63.8885 117.623 61.2289 118.154 58.5289C118.362 57.4715 117.673 56.4461 116.616 56.2378C115.561 56.0295 114.533 56.7184 114.326 57.7759C113.88 60.0403 113.224 62.2757 112.373 64.4455C110.311 63.5017 108.049 62.9234 105.668 62.7953C106.756 60.2341 107.508 57.5348 107.908 54.7752C107.922 54.7058 107.932 54.6349 107.938 54.5624C108.14 53.0991 108.246 51.6197 108.246 50.1358C108.246 45.6818 107.32 41.2735 105.553 37.2108C107.939 37.0964 110.208 36.5318 112.278 35.5988C113.155 37.7937 113.836 40.0711 114.305 42.3935C114.491 43.3197 115.305 43.9598 116.215 43.9598C116.343 43.9598 116.473 43.9468 116.603 43.9209C117.66 43.708 118.343 42.6788 118.13 41.6222C117.576 38.8756 116.751 36.187 115.678 33.606C116.008 33.3633 116.328 33.1078 116.64 32.8438C116.726 32.782 116.807 32.7141 116.88 32.6393C120.79 29.2244 123.266 24.205 123.266 18.6165C123.266 8.35114 114.918 0 104.657 0C97.9162 0 92.0011 3.60413 88.7357 8.98743C84.5899 7.68967 80.2755 7.03125 75.8856 7.03125C71.5154 7.03125 67.2102 7.68661 63.0628 8.97751C59.7967 3.60031 53.8847 0 47.1479 0C36.8871 0 28.5391 8.35114 28.5391 18.6165C28.5391 23.938 30.7829 28.7445 34.374 32.1404C34.4625 32.2426 34.5625 32.3349 34.6723 32.4173C35.1278 32.8293 35.6031 33.2191 36.0975 33.5846C35.0538 36.1 34.2466 38.7009 33.6988 41.3406C33.4799 42.3958 34.1581 43.4288 35.2133 43.6478C35.3468 43.6752 35.4803 43.6882 35.6115 43.6882C36.5171 43.6882 37.3289 43.055 37.5196 42.1333C37.9812 39.9094 38.645 37.7151 39.4949 35.5843C41.5624 36.5211 43.8299 37.0903 46.2148 37.2093C45.0849 39.8071 44.3014 42.5499 43.8833 45.3583C43.8635 45.4483 43.8497 45.5406 43.8429 45.6345C43.6346 47.1214 43.5255 48.6252 43.5255 50.1358C43.5255 54.496 44.4105 58.8142 46.0989 62.7975C43.7208 62.9303 41.461 63.5124 39.4018 64.4592C38.5061 62.178 37.8217 59.8053 37.367 57.3776C37.1687 56.3187 36.1471 55.6221 35.0897 55.8197C34.0299 56.0181 33.3326 57.0374 33.531 58.0971C34.0711 60.9772 34.905 63.7894 36.009 66.4803C31.4764 69.8792 28.5391 75.2945 28.5391 81.3835C28.5391 86.721 30.7966 91.5398 34.4053 94.9379C34.4763 95.015 34.5526 95.0867 34.6357 95.1523C37.9431 98.1628 42.3353 100 47.1479 100C51.7187 100 55.9088 98.3421 59.1512 95.5971C59.2321 95.536 59.3084 95.4704 59.3786 95.3987C60.7504 94.1986 61.9467 92.8024 62.9202 91.2514C67.1125 92.5743 71.4659 93.2457 75.8856 93.2457C80.3221 93.2457 84.6845 92.5713 88.8792 91.243C89.7276 92.5964 90.7453 93.8324 91.9027 94.9242C91.9805 95.0111 92.0667 95.0912 92.1606 95.1637C95.4664 98.1667 99.851 100 104.657 100C109.227 100 113.417 98.3421 116.659 95.5978C116.734 95.5414 116.807 95.4819 116.873 95.4155C120.788 91.9998 123.266 86.9759 123.266 81.3835C123.266 75.2823 120.316 69.8563 115.768 66.4597V66.4597ZM104.657 33.3298C101.269 33.3298 98.1481 32.1747 95.6594 30.2422C97.1807 26.8623 100.599 24.5926 104.364 24.5926C108.301 24.5926 111.781 26.9966 113.215 30.5702C110.802 32.3044 107.848 33.3298 104.657 33.3298V33.3298ZM99.8625 16.1911C99.8625 13.7077 101.881 11.6867 104.364 11.6867C106.846 11.6867 108.865 13.7077 108.865 16.1911C108.865 18.6722 106.846 20.6902 104.364 20.6902C101.881 20.6902 99.8625 18.6722 99.8625 16.1911ZM104.657 3.90244C112.766 3.90244 119.363 10.5026 119.363 18.6165C119.363 22.0573 118.173 25.2243 116.187 27.7328C114.859 25.2762 112.804 23.3131 110.34 22.0901C111.84 20.5719 112.768 18.4883 112.768 16.1911C112.768 11.5555 108.997 7.78427 104.364 7.78427C99.7297 7.78427 95.9593 11.5555 95.9593 16.1911C95.9593 18.4959 96.8939 20.5872 98.403 22.1069C96.0951 23.2605 94.132 25.061 92.7969 27.3026C91.0093 24.8665 89.9511 21.8628 89.9511 18.6157C89.9511 10.5026 96.5475 3.90244 104.657 3.90244V3.90244ZM90.1464 30.2559C90.6759 30.9151 91.2504 31.5361 91.863 32.1175C91.966 32.2395 92.0843 32.3486 92.217 32.4432C94.6707 34.655 97.711 36.2259 101.076 36.8851C103.216 40.9576 104.343 45.5185 104.343 50.1358C104.343 50.9026 104.309 51.6685 104.247 52.4307H85.7031C84.3839 52.4307 83.3105 51.3565 83.3105 50.0359C83.3105 48.7152 84.3839 47.641 85.7031 47.641H86.6216C90.093 47.641 92.9174 44.8158 92.9174 41.3437C92.9174 37.8716 90.093 35.0464 86.6216 35.0464C85.3025 35.0464 84.2291 33.9714 84.2291 32.6515C84.2291 31.3309 85.3025 30.2559 86.6216 30.2559H90.1464ZM75.8856 10.9337C79.6987 10.9337 83.4486 11.4807 87.0611 12.5572C86.4057 14.4577 86.0487 16.4955 86.0487 18.6157C86.0487 18.8774 86.0555 19.1376 86.0662 19.397C82.8047 18.3144 79.3936 17.7666 75.8856 17.7666C72.3928 17.7666 68.9932 18.3105 65.7392 19.3855C65.7499 19.1299 65.7568 18.8744 65.7568 18.6157C65.7568 16.4917 65.3982 14.4501 64.7405 12.5473C68.3523 11.4777 72.0915 10.9337 75.8856 10.9337ZM35.2865 27.301C33.4997 24.865 32.4415 21.8628 32.4415 18.6165C32.4415 10.5026 39.0386 3.90244 47.1479 3.90244C55.2564 3.90244 61.8536 10.5026 61.8536 18.6165C61.8536 22.0573 60.6634 25.2243 58.6775 27.7328C57.3499 25.2762 55.2953 23.3131 52.8311 22.0901C54.3302 20.5719 55.258 18.4883 55.258 16.1911C55.258 11.5555 51.4875 7.78427 46.8542 7.78427C42.2201 7.78427 38.4504 11.5555 38.4504 16.1911C38.4504 18.4959 39.3842 20.5864 40.8926 22.1054C38.5832 23.259 36.6201 25.0595 35.2865 27.301ZM51.3555 16.1911C51.3555 18.6722 49.3368 20.6902 46.8542 20.6902C44.3723 20.6902 42.3528 18.6722 42.3528 16.1911C42.3528 13.7077 44.3723 11.6867 46.8542 11.6867C49.3368 11.6867 51.3555 13.7077 51.3555 16.1911ZM38.1483 30.2414C39.6665 26.8623 43.086 24.5926 46.8542 24.5926C50.791 24.5926 54.2722 26.9966 55.7058 30.5702C53.2926 32.3044 50.3385 33.3298 47.1479 33.3298C43.7597 33.3298 40.6378 32.1747 38.1483 30.2414ZM38.1475 93.0077C39.665 89.6294 43.0853 87.3596 46.8542 87.3596C50.7925 87.3596 54.2738 89.7644 55.7066 93.338C53.2934 95.0722 50.3385 96.0976 47.1479 96.0976C43.7589 96.0976 40.637 94.9417 38.1475 93.0077V93.0077ZM42.3528 78.9589C42.3528 76.4748 44.3723 74.4545 46.8542 74.4545C49.3368 74.4545 51.3555 76.4755 51.3555 78.9589C51.3555 81.4392 49.3368 83.4579 46.8542 83.4579C44.3723 83.4579 42.3528 81.4392 42.3528 78.9589ZM58.6782 90.5006C57.3507 88.044 55.2961 86.0802 52.8318 84.8572C54.331 83.3389 55.258 81.2553 55.258 78.9589C55.258 74.3233 51.4883 70.5521 46.8542 70.5521C42.2209 70.5521 38.4504 74.3233 38.4504 78.9589C38.4504 81.263 39.3835 83.3534 40.8918 84.8732C38.5824 86.026 36.6186 87.8258 35.285 90.0665C33.4997 87.6312 32.4415 84.6291 32.4415 81.3835C32.4415 73.2704 39.0386 66.6695 47.1479 66.6695C55.2564 66.6695 61.8536 73.2704 61.8536 81.3835C61.8536 84.8251 60.6634 87.9913 58.6782 90.5006ZM61.7872 69.9043C59.0414 66.4062 55.071 63.9137 50.5285 63.076C48.4976 59.0935 47.4279 54.6402 47.4279 50.1358C47.4279 49.3324 47.4653 48.5321 47.5324 47.7348H65.9467C67.2659 47.7348 68.3393 48.8091 68.3393 50.1297C68.3393 51.4503 67.2659 52.5246 65.9467 52.5246H65.0335C61.5621 52.5246 58.7377 55.3497 58.7377 58.8226C58.7377 62.2948 61.5621 65.1199 65.0335 65.1199C66.3526 65.1199 67.4261 66.1919 67.4261 67.5095C67.4261 68.8301 66.3526 69.9043 65.0335 69.9043H61.7872ZM75.8856 89.3433C72.0617 89.3433 68.2928 88.7901 64.6528 87.7007C65.3661 85.7277 65.756 83.6006 65.756 81.3835C65.756 81.2195 65.7537 81.0555 65.7499 80.8922C68.9977 81.9664 72.3943 82.5104 75.8856 82.5104C79.3791 82.5104 82.7871 81.9618 86.0555 80.8777C86.051 81.0463 86.0479 81.2149 86.0479 81.3843C86.0479 83.5976 86.437 85.7216 87.1488 87.6923C83.505 88.7871 79.7262 89.3433 75.8856 89.3433V89.3433ZM86.7063 76.4755C83.2693 77.89 79.6346 78.6079 75.8856 78.6079C72.1357 78.6079 68.5133 77.8954 65.1029 76.4915C64.8504 75.5661 64.5292 74.6689 64.1439 73.8068H65.0335C68.5049 73.8068 71.3293 70.9816 71.3293 67.5095C71.3293 64.0404 68.5049 61.2175 65.0335 61.2175C63.7136 61.2175 62.6402 60.1433 62.6402 58.8226C62.6402 57.502 63.7136 56.4278 65.0335 56.4278H65.9467C69.4181 56.4278 72.2418 53.6026 72.2418 50.1305C72.2418 46.6583 69.4181 43.8332 65.9467 43.8332H48.1329C48.6784 41.42 49.5352 39.0839 50.6872 36.8935C53.8702 36.2778 56.7655 34.848 59.1497 32.8308C59.2245 32.7744 59.297 32.7141 59.3633 32.6477C62.0146 30.3345 64.0066 27.2827 65.016 23.8167C68.4561 22.3923 72.1075 21.669 75.8856 21.669C79.6812 21.669 83.3456 22.3976 86.7933 23.8335C87.0466 24.7017 87.3617 25.5432 87.7332 26.3542H86.6216C83.1503 26.3542 80.3259 29.1786 80.3259 32.6515C80.3259 36.1237 83.1503 38.9488 86.6216 38.9488C87.9408 38.9488 89.0142 40.023 89.0142 41.3437C89.0142 42.6643 87.9408 43.7386 86.6216 43.7386H85.7031C82.2317 43.7386 79.4073 46.5637 79.4073 50.0359C79.4073 53.508 82.2317 56.3332 85.7031 56.3332H103.66C103.139 58.6761 102.324 60.9482 101.231 63.0844C94.2129 64.3967 88.5694 69.6625 86.7063 76.4755V76.4755ZM95.6579 93.0084C97.1784 89.6301 100.599 87.3596 104.364 87.3596C108.301 87.3596 111.783 89.7644 113.215 93.338C110.802 95.0722 107.848 96.0976 104.657 96.0976C101.269 96.0976 98.1474 94.9425 95.6579 93.0084ZM99.8625 78.9589C99.8625 76.4748 101.881 74.4545 104.364 74.4545C106.846 74.4545 108.865 76.4755 108.865 78.9589C108.865 81.4392 106.846 83.4579 104.364 83.4579C101.881 83.4579 99.8625 81.4392 99.8625 78.9589ZM116.187 90.5006C114.86 88.044 112.805 86.0802 110.341 84.8572C111.84 83.3389 112.768 81.2553 112.768 78.9589C112.768 74.3233 108.997 70.5521 104.364 70.5521C99.7297 70.5521 95.9593 74.3233 95.9593 78.9589C95.9593 81.2637 96.8939 83.3549 98.4022 84.874C96.0943 86.0275 94.1305 87.8273 92.7961 90.0688C91.0093 87.6328 89.9511 84.6298 89.9511 81.3835C89.9511 73.2704 96.5475 66.6702 104.657 66.6702C112.766 66.6702 119.363 73.2704 119.363 81.3835C119.363 84.8251 118.173 87.9913 116.187 90.5006V90.5006Z" fill="#2F2E41"/>
<path id="Vector_2" d="M115.069 50.1358V50.1747C115.069 51.252 115.942 52.1255 117.02 52.1255C118.097 52.1255 118.971 51.252 118.971 50.1747V50.1358C118.971 49.0578 118.097 48.1842 117.02 48.1842C115.942 48.1842 115.069 49.0578 115.069 50.1358V50.1358Z" fill="#2F2E41"/>
<path id="Vector_3" d="M36.7033 50.1358V50.1022C36.7033 49.0249 35.8289 48.1514 34.7517 48.1514C33.6736 48.1514 32.8001 49.0249 32.8001 50.1022V50.1358C32.8001 51.213 33.6736 52.0866 34.7517 52.0866C35.8289 52.0866 36.7033 51.213 36.7033 50.1358Z" fill="#2F2E41"/>
</g>
</g>
</g>
<defs>
<clipPath id="clip0">
</clipPath>
</defs>
</svg>
