<svg width="132" height="109" viewBox="0 0 132 109" fill="none" xmlns="http://www.w3.org/2000/svg">
<path fill-rule="evenodd" clip-rule="evenodd" d="M38 109C58.9868 109 76 91.9868 76 71C76 50.0132 58.9868 33 38 33C17.0132 33 0 50.0132 0 71C0 91.9868 17.0132 109 38 109Z" fill="#F5C93C"/>
<path d="M58.6369 10.9486H76.0502C76.9223 10.9486 77.6291 10.242 77.6291 9.36974C77.6291 8.49747 76.9221 7.79083 76.0502 7.79083H58.6369C57.7648 7.79083 57.058 8.49747 57.058 9.36974C57.0578 10.242 57.7648 10.9486 58.6369 10.9486Z" fill="#3E3D53"/>
<path d="M58.6369 17.917H93.4635C94.3357 17.917 95.0424 17.2101 95.0424 16.3381C95.0424 15.466 94.3355 14.7592 93.4635 14.7592H58.6369C57.7648 14.7592 57.058 15.466 57.058 16.3381C57.058 17.2101 57.7648 17.917 58.6369 17.917Z" fill="#3E3D53"/>
<path d="M58.6369 39.6259H76.0502C76.9223 39.6259 77.6291 38.9193 77.6291 38.047C77.6291 37.1748 76.9221 36.4681 76.0502 36.4681H58.6369C57.7648 36.4681 57.058 37.1748 57.058 38.047C57.0578 38.9191 57.7648 39.6259 58.6369 39.6259Z" fill="#3E3D53"/>
<path d="M58.6369 46.5947H93.0801C93.9524 46.5947 94.659 45.8881 94.659 45.0158C94.659 44.1435 93.9522 43.4369 93.0801 43.4369H58.6369C57.7648 43.4369 57.058 44.1437 57.058 45.0158C57.0578 45.8877 57.7648 46.5947 58.6369 46.5947Z" fill="#3E3D53"/>
<path d="M58.6369 68.3037H76.0502C76.9223 68.3037 77.6291 67.5971 77.6291 66.7248C77.6291 65.8525 76.9221 65.1459 76.0502 65.1459H58.6369C57.7648 65.1459 57.058 65.8525 57.058 66.7248C57.0578 67.5969 57.7648 68.3037 58.6369 68.3037Z" fill="#3E3D53"/>
<path d="M92.833 72.1144H58.6369C57.7648 72.1144 57.058 72.8211 57.058 73.6933C57.058 74.5654 57.765 75.2723 58.6369 75.2723H92.8332C93.7055 75.2723 94.4121 74.5652 94.4121 73.6933C94.4119 72.8215 93.7053 72.1144 92.833 72.1144Z" fill="#3E3D53"/>
<path d="M124.515 79.066L115.343 75.3879V73.3736C117.869 71.9998 119.786 69.6439 120.585 66.8234C123.651 66.8074 126.14 64.3096 126.14 61.2402C126.14 59.3955 125.241 57.7576 123.857 56.7402V52.5474C123.857 44.7439 117.509 38.3951 109.705 38.3951H108.657C107.487 38.3951 106.351 38.5404 105.263 38.8094V30.2568C105.263 29.3846 104.556 28.6779 103.684 28.6779H98.9945C98.1223 28.6779 97.4156 29.3848 97.4156 30.2568C97.4156 31.1289 98.1223 31.8357 98.9945 31.8357H102.105V40.0092C97.9617 42.1832 95.0221 46.349 94.5686 51.2275H35.1578V31.8357H93.7096C94.5818 31.8357 95.2885 31.1289 95.2885 30.2568C95.2885 29.3848 94.5818 28.6779 93.7096 28.6779H33.5789C32.7068 28.6779 32 29.3848 32 30.2568V52.8064C32 53.6787 32.707 54.3853 33.5789 54.3853H94.5049V56.7236C94.2445 56.9131 94.0012 57.1246 93.7773 57.3555H33.5789C32.7068 57.3555 32 58.0621 32 58.9344V81.484C32 82.3562 32.707 83.0629 33.5789 83.0629H88.4986C87.1645 84.8974 86.1664 87.3697 86.1664 90.5676V98.4185C86.1664 99.2906 86.8732 99.9994 87.7453 99.9994H93.71C94.5822 99.9994 95.2889 99.2928 95.2889 98.4205C95.2889 97.5484 94.5822 96.8416 93.71 96.8416H89.3242V90.5678C89.3242 84.0017 94.4914 82.1172 94.7023 82.0435C94.7268 82.0353 94.7512 82.0265 94.775 82.017L103.418 78.6324C103.458 78.6808 103.499 78.7281 103.545 78.773L108.079 83.1889C108.374 83.4762 108.769 83.6367 109.181 83.6367C109.189 83.6367 109.197 83.6367 109.205 83.6365C109.626 83.6301 110.026 83.456 110.317 83.1535L114.752 78.5531L123.379 82.0127C123.401 82.0215 123.432 82.033 123.454 82.0408C123.674 82.1176 128.842 84.0019 128.842 90.5682V96.842H115.855H104.647H102.309H100.348H98.7619C97.8896 96.842 97.183 97.549 97.183 98.4209C97.183 99.2931 97.8896 99.9998 98.7619 99.9998H100.348H102.309H104.647H115.855H130.421C131.293 99.9998 132 99.2775 132 98.4055V90.568C132 83.5008 127.131 79.967 124.515 79.066ZM120.994 58.856C122.123 59.0633 122.982 60.0527 122.982 61.2404C122.982 62.4281 122.123 63.4172 120.994 63.6246V58.856ZM97.6625 52.5476C97.6627 46.4853 102.595 41.5531 108.657 41.5531H109.705C115.768 41.5531 120.7 46.4853 120.7 52.5476V55.1262C120.697 55.1232 120.695 55.1207 120.693 55.1178C120.679 55.0976 120.664 55.0775 120.649 55.058C120.634 55.0392 120.618 55.0213 120.602 55.0035C120.584 54.9826 120.566 54.9623 120.546 54.9422C120.531 54.9267 120.516 54.9121 120.5 54.8971C120.479 54.8767 120.457 54.8568 120.434 54.8375C120.419 54.8242 120.402 54.8119 120.386 54.799C120.362 54.7805 120.338 54.7621 120.314 54.7449C120.296 54.7324 120.277 54.7211 120.259 54.7096C120.235 54.6941 120.211 54.6789 120.186 54.6648C120.164 54.6523 120.141 54.6414 120.118 54.6301C120.096 54.6189 120.073 54.6076 120.05 54.5974C120.023 54.5851 119.994 54.575 119.966 54.5644C119.946 54.557 119.927 54.5492 119.907 54.5428C119.875 54.5322 119.842 54.5238 119.81 54.5154C119.795 54.5113 119.781 54.5066 119.766 54.5029C116.33 53.7213 115.254 49.2791 115.245 49.2394C115.108 48.6342 114.629 48.1654 114.021 48.0412C113.413 47.916 112.789 48.1598 112.425 48.6627C108.271 54.4062 99.1273 54.4637 99.001 54.4637C99.001 54.4637 99.0006 54.4637 99.0004 54.4637C98.9982 54.4637 98.9963 54.4637 98.9945 54.4637C98.9402 54.4637 98.8863 54.4666 98.8334 54.4719C98.8168 54.4736 98.8008 54.4769 98.7842 54.4793C98.7482 54.484 98.7121 54.4885 98.6769 54.4957C98.6545 54.5004 98.6326 54.5072 98.6102 54.5127C98.582 54.5197 98.5533 54.5256 98.526 54.5344C98.5004 54.5424 98.4758 54.5527 98.4508 54.5619C98.4279 54.5703 98.4041 54.5777 98.3814 54.5871C98.3525 54.5994 98.325 54.6137 98.2975 54.6273C98.2795 54.6361 98.2613 54.6437 98.2437 54.6533C98.2152 54.6687 98.1887 54.6861 98.1611 54.7031C98.1455 54.7129 98.1291 54.7217 98.1135 54.732C98.0881 54.7492 98.0641 54.7683 98.0394 54.7871C98.0236 54.799 98.0072 54.8101 97.9918 54.8226C97.9697 54.841 97.949 54.8609 97.9279 54.8801C97.9117 54.8947 97.8949 54.9088 97.8795 54.924C97.86 54.9435 97.8422 54.9644 97.8238 54.9849C97.8084 55.0019 97.7922 55.0182 97.7773 55.0359C97.7609 55.0558 97.7461 55.0771 97.7307 55.0982C97.7158 55.118 97.7002 55.1369 97.6863 55.1574C97.6777 55.1701 97.6705 55.1836 97.6623 55.1967V52.5476H97.6625ZM97.4158 58.8449V63.6357C96.2521 63.4574 95.357 62.4529 95.357 61.2406C95.3568 60.0277 96.2519 59.0232 97.4158 58.8449ZM103.068 75.3783L93.657 79.0639C93.1334 79.2437 92.5187 79.5312 91.8709 79.9295C91.7844 79.9148 91.6959 79.9055 91.6053 79.9055H35.1578V60.5137H92.248C92.2168 60.7517 92.1992 60.9939 92.1992 61.2404C92.1992 64.3193 94.7045 66.8242 97.7838 66.8242C97.7975 66.8242 97.8111 66.8224 97.8248 66.8221C98.6236 69.6431 100.541 71.9994 103.068 73.3734V75.3783ZM112.184 76.4808C112.184 76.4828 112.184 76.4846 112.184 76.4863V76.6656L109.145 79.8193L106.226 76.9758V74.492C106.868 74.6117 107.529 74.6775 108.206 74.6775H110.204C110.881 74.6775 111.542 74.6121 112.184 74.4922V76.4808V76.4808ZM110.205 71.5195H108.206C103.998 71.5195 100.574 68.0955 100.574 63.8871V57.5412C103.33 57.3037 109.068 56.3566 113.158 52.5699C113.995 54.2221 115.45 56.2137 117.837 57.191V63.8873C117.836 68.0957 114.413 71.5195 110.205 71.5195Z" fill="#3E3D53"/>
<path d="M48.1307 9.20042C49.0027 9.20042 49.7096 8.49377 49.7096 7.62151C49.7096 6.74924 49.0025 6.0426 48.1307 6.0426H40.1666C39.2945 6.0426 38.5877 6.74924 38.5877 7.62151V18.0865C38.5877 18.9588 39.2947 19.6655 40.1666 19.6655H51.1453C52.0174 19.6655 52.7242 18.9586 52.7242 18.0865V15.2629C52.7242 14.3907 52.0172 13.684 51.1453 13.684C50.2732 13.684 49.5664 14.3908 49.5664 15.2629V16.5073H41.7455V9.20042H48.1307Z" fill="#3E3D53"/>
<path d="M54.2315 6.47249C53.5967 5.87444 52.5975 5.90413 51.9994 6.5387L46.7547 12.1035L45.1334 10.3375C44.5438 9.69475 43.5447 9.65257 42.9025 10.242C42.2602 10.8319 42.2176 11.8307 42.807 12.4729L45.5762 15.4895C45.8729 15.8127 46.2904 15.9979 46.7291 16.0008C46.7326 16.0008 46.7361 16.0008 46.7395 16.0008C47.1742 16.0008 47.59 15.8215 47.8885 15.5049L54.2973 8.70452C54.8955 8.06995 54.8658 7.07034 54.2315 6.47249Z" fill="#3E3D53"/>
<path d="M48.1307 37.8779C49.0027 37.8779 49.7096 37.1713 49.7096 36.299C49.7096 35.4267 49.0025 34.7201 48.1307 34.7201H40.1666C39.2945 34.7201 38.5877 35.4267 38.5877 36.299V46.764C38.5877 47.6363 39.2947 48.3429 40.1666 48.3429H51.1453C52.0174 48.3429 52.7242 47.6363 52.7242 46.764V43.9406C52.7242 43.0683 52.0172 42.3617 51.1453 42.3617C50.2732 42.3617 49.5664 43.0683 49.5664 43.9406V45.1849H41.7455V37.8777H48.1307V37.8779Z" fill="#3E3D53"/>
<path d="M54.2314 35.1498C53.5967 34.5517 52.5975 34.5814 51.9994 35.2162L46.7547 40.781L45.1334 39.015C44.5438 38.372 43.5447 38.33 42.9025 38.9195C42.2602 39.5093 42.2176 40.5082 42.807 41.1504L45.5764 44.167C45.8731 44.4902 46.2906 44.6754 46.7293 44.6783C46.7328 44.6783 46.7363 44.6783 46.7397 44.6783C47.1744 44.6783 47.5902 44.499 47.8887 44.1824L54.2975 37.382C54.8955 36.7474 54.8658 35.748 54.2314 35.1498Z" fill="#3E3D53"/>
<path d="M51.1453 71.0396C50.2732 71.0396 49.5664 71.7463 49.5664 72.6185V73.8629H41.7455V66.5556H48.1309C49.0029 66.5556 49.7098 65.8486 49.7098 64.9767C49.7098 64.1045 49.0027 63.3978 48.1309 63.3978H40.1666C39.2945 63.3978 38.5877 64.1045 38.5877 64.9767V75.4418C38.5877 76.314 39.2947 77.0207 40.1666 77.0207H51.1453C52.0174 77.0207 52.7242 76.314 52.7242 75.4418V72.6183C52.7242 71.7463 52.0172 71.0396 51.1453 71.0396Z" fill="#3E3D53"/>
<path d="M51.9994 63.8942L46.7547 69.459L45.1334 67.693C44.5438 67.0501 43.5447 67.0083 42.9025 67.5975C42.2602 68.1874 42.2176 69.1862 42.807 69.8284L45.5764 72.845C45.8731 73.1682 46.2906 73.3534 46.7293 73.3563C46.7328 73.3563 46.7363 73.3563 46.7397 73.3563C47.1744 73.3563 47.5902 73.177 47.8887 72.8604L54.2975 66.06C54.8955 65.4254 54.8658 64.426 54.2314 63.828C53.5967 63.2297 52.5975 63.2594 51.9994 63.8942Z" fill="#3E3D53"/>
<path d="M33.5789 25.708H103.684C104.556 25.708 105.263 25.0014 105.263 24.1291V1.57891C105.263 0.706641 104.556 0 103.684 0H98.9947C98.1225 0 97.4158 0.706836 97.4158 1.57891C97.4158 2.45098 98.1227 3.15781 98.9947 3.15781H102.105V22.5498H35.1578V3.15781H93.7096C94.5818 3.15781 95.2885 2.45098 95.2885 1.57891C95.2885 0.706836 94.5818 0 93.7098 0H33.5789C32.707 0 32 0.707031 32 1.57891V24.1289C32 25.001 32.707 25.708 33.5789 25.708Z" fill="#3E3D53"/>
</svg>
