<svg width="127" height="112" viewBox="0 0 127 112" fill="none" xmlns="http://www.w3.org/2000/svg">
<path fill-rule="evenodd" clip-rule="evenodd" d="M38 112C58.9868 112 76 94.9868 76 74C76 53.0132 58.9868 36 38 36C17.0132 36 0 53.0132 0 74C0 94.9868 17.0132 112 38 112Z" fill="#F5C93C"/>
<g clip-path="url(#clip0)">
<path d="M96.3548 25.8065H57.6451C55.8661 25.8065 54.4193 27.2532 54.4193 29.0323V38.7097C54.4193 39.8981 55.0722 40.9274 56.0322 41.4874V45.6094C55.0722 46.1694 54.4193 47.1987 54.4193 48.3871V58.0645C54.4193 59.2529 55.0722 60.2823 56.0322 60.8422V64.9643C55.0722 65.5242 54.4193 66.5535 54.4193 67.7419V77.4194C54.4193 78.6078 55.0722 79.6371 56.0322 80.1971V84.3191C55.0722 84.879 54.4193 85.9084 54.4193 87.0968V96.7742C54.4193 98.5533 55.8661 100 57.6451 100H96.3548C98.1339 100 99.5806 98.5533 99.5806 96.7742V87.0968C99.5806 85.9084 98.9278 84.879 97.9677 84.3191V80.1971C98.9278 79.6371 99.5806 78.6078 99.5806 77.4194V67.7419C99.5806 66.5535 98.9278 65.5242 97.9677 64.9643V60.8422C98.9278 60.2823 99.5806 59.2529 99.5806 58.0645V48.3871C99.5806 47.1987 98.9278 46.1694 97.9677 45.6094V41.4874C98.9278 40.9274 99.5806 39.8981 99.5806 38.7097V29.0323C99.5806 27.2532 98.1339 25.8065 96.3548 25.8065ZM57.6451 29.0323H96.3548L96.3564 38.7097H57.6451V29.0323ZM59.2581 83.871V80.6452H94.7419V83.871H59.2581ZM57.6451 77.4194V67.7419H96.3548L96.3564 77.4194H57.6451ZM59.2581 64.5161V61.2903H94.7419V64.5161H59.2581ZM57.6451 58.0645V48.3871H96.3548L96.3564 58.0645H57.6451ZM59.2581 45.1613V41.9355H94.7419V45.1613H59.2581ZM57.6451 96.7742V87.0968H96.3548L96.3564 96.7742H57.6451Z" fill="#3E3D53"/>
<path d="M41.5161 74.1936H44.7419V77.4194H41.5161V74.1936Z" fill="#3E3D53"/>
<path d="M41.5161 80.6451H44.7419V83.8709H41.5161V80.6451Z" fill="#3E3D53"/>
<path d="M109.258 74.1936H112.484V77.4194H109.258V74.1936Z" fill="#3E3D53"/>
<path d="M112.484 64.5161H117.619C118.287 66.3889 120.062 67.7419 122.161 67.7419C124.829 67.7419 127 65.5707 127 62.9032C127 60.2358 124.829 58.0645 122.161 58.0645C120.062 58.0645 118.287 59.4175 117.619 61.2903H112.484V48.3871H114.097C121.212 48.3871 127 42.5986 127 35.4839C127 29.4772 122.869 24.4322 117.303 22.9996C117.307 22.8594 117.323 22.7224 117.323 22.5806C117.323 11.9078 108.641 3.22581 97.9677 3.22581C92.3966 3.22581 87.1224 5.64516 83.4697 9.77586C79.013 3.82907 71.9211 0 64.0968 0C51.2999 0 40.8191 9.9948 39.9851 22.5854C39.9584 22.5838 39.9308 22.5806 39.9032 22.5806C32.7885 22.5806 27 28.3691 27 35.4839C27 42.5986 32.7885 48.3871 39.9032 48.3871H41.5161V61.2903H36.3805C35.7127 59.4175 33.9383 58.0645 31.8387 58.0645C29.1713 58.0645 27 60.2358 27 62.9032C27 65.5707 29.1713 67.7419 31.8387 67.7419C33.9383 67.7419 35.7127 66.3889 36.3805 64.5161H41.5161V70.9677H44.7419V56.4516H47.9677V93.5484H44.7419V87.0968H41.5161V93.5484H36.3805C35.7127 91.6756 33.9383 90.3226 31.8387 90.3226C29.1713 90.3226 27 92.4939 27 95.1613C27 97.8287 29.1713 100 31.8387 100C33.9383 100 35.7127 98.647 36.3805 96.7742H47.9677V100H51.1935V41.9355H47.9677V53.2258H44.7419V45.1613H39.9032C34.566 45.1613 30.2258 40.8211 30.2258 35.4839C30.2258 30.1466 34.566 25.8065 39.9032 25.8065C42.5258 25.8065 44.9806 26.8389 46.8163 28.7109L49.1207 26.4546C47.4629 24.7614 45.4192 23.5982 43.1889 23.0162C43.8048 12.0031 52.9325 3.22581 64.0968 3.22581C74.4625 3.22581 83.3855 10.9517 84.8535 21.1969L88.0454 20.7401C87.6272 17.8238 86.6821 15.0871 85.3228 12.6142C88.3738 8.75284 93.0243 6.45161 97.9677 6.45161C106.862 6.45161 114.097 13.6868 114.097 22.5806C110.6 22.5806 107.325 23.9565 104.879 26.4546L107.184 28.7109C109.019 26.8389 111.474 25.8065 114.097 25.8065C119.434 25.8065 123.774 30.1466 123.774 35.4839C123.774 40.8211 119.434 45.1613 114.097 45.1613H109.258V53.2258H106.032V41.9355H102.806V100H106.032V96.7742H117.619C118.287 98.647 120.062 100 122.161 100C124.829 100 127 97.8287 127 95.1613C127 92.4939 124.829 90.3226 122.161 90.3226C120.062 90.3226 118.287 91.6756 117.619 93.5484H112.484V87.0968H109.258V93.5484H106.032V56.4516H109.258V70.9677H112.484V64.5161ZM122.161 61.2903C123.05 61.2903 123.774 62.0133 123.774 62.9032C123.774 63.7932 123.05 64.5161 122.161 64.5161C121.273 64.5161 120.548 63.7932 120.548 62.9032C120.548 62.0133 121.273 61.2903 122.161 61.2903ZM31.8387 64.5161C30.9504 64.5161 30.2258 63.7932 30.2258 62.9032C30.2258 62.0133 30.9504 61.2903 31.8387 61.2903C32.7271 61.2903 33.4516 62.0133 33.4516 62.9032C33.4516 63.7932 32.7271 64.5161 31.8387 64.5161ZM31.8387 96.7742C30.9504 96.7742 30.2258 96.0512 30.2258 95.1613C30.2258 94.2714 30.9504 93.5484 31.8387 93.5484C32.7271 93.5484 33.4516 94.2714 33.4516 95.1613C33.4516 96.0512 32.7271 96.7742 31.8387 96.7742ZM122.161 93.5484C123.05 93.5484 123.774 94.2714 123.774 95.1613C123.774 96.0512 123.05 96.7742 122.161 96.7742C121.273 96.7742 120.548 96.0512 120.548 95.1613C120.548 94.2714 121.273 93.5484 122.161 93.5484Z" fill="#3E3D53"/>
<path d="M109.258 80.6451H112.484V83.8709H109.258V80.6451Z" fill="#3E3D53"/>
<path d="M60.871 32.2581H64.0968V35.4839H60.871V32.2581Z" fill="#3E3D53"/>
<path d="M67.3226 32.2581H70.5484V35.4839H67.3226V32.2581Z" fill="#3E3D53"/>
<path d="M83.4516 51.6129H86.6774V54.8387H83.4516V51.6129Z" fill="#3E3D53"/>
<path d="M89.9032 51.6129H93.129V54.8387H89.9032V51.6129Z" fill="#3E3D53"/>
<path d="M59.2581 70.9678H62.4839V74.1936H59.2581V70.9678Z" fill="#3E3D53"/>
<path d="M65.7097 70.9678H68.9355V74.1936H65.7097V70.9678Z" fill="#3E3D53"/>
<path d="M83.4516 90.3226H86.6774V93.5484H83.4516V90.3226Z" fill="#3E3D53"/>
<path d="M89.9032 90.3226H93.129V93.5484H89.9032V90.3226Z" fill="#3E3D53"/>
</g>
<defs>
<clipPath id="clip0">
<rect width="100" height="100" fill="white" transform="translate(27)"/>
</clipPath>
</defs>
</svg>
