<svg width="44" height="44" viewBox="0 0 44 44" fill="none" xmlns="http://www.w3.org/2000/svg">
<path fill-rule="evenodd" clip-rule="evenodd" d="M22 43C33.598 43 43 33.598 43 22C43 10.402 33.598 1 22 1C10.402 1 1 10.402 1 22C1 33.598 10.402 43 22 43Z" stroke="#67A1D6" stroke-width="1.11765" class="border"/>
<path fill-rule="evenodd" clip-rule="evenodd" d="M19.25 12H26.75C30.2012 12 33 14.7988 33 18.25V25.75C33 29.2012 30.2012 32 26.75 32H19.25C15.7988 32 13 29.2012 13 25.75V18.25C13 14.7988 15.7988 12 19.25 12ZM26.75 30.125C29.1626 30.125 31.125 28.1621 31.125 25.75V18.25C31.125 15.8379 29.1626 13.875 26.75 13.875H19.25C16.8374 13.875 14.875 15.8379 14.875 18.25V25.75C14.875 28.1621 16.8374 30.125 19.25 30.125H26.75Z" fill="#67A1D6"/>
<path fill-rule="evenodd" clip-rule="evenodd" d="M18.8823 22.1689C18.8823 19.8018 20.8013 17.8828 23.168 17.8828C25.5349 17.8828 27.4539 19.8018 27.4539 22.1689C27.4539 24.5352 25.5349 26.4541 23.168 26.4541C20.8013 26.4541 18.8823 24.5352 18.8823 22.1689ZM20.4895 22.1689C20.4895 23.6455 21.6917 24.8477 23.168 24.8477C24.6445 24.8477 25.8467 23.6455 25.8467 22.1689C25.8467 20.6914 24.6445 19.4902 23.168 19.4902C21.6917 19.4902 20.4895 20.6914 20.4895 22.1689Z" fill="#67A1D6"/>
</svg>
