<svg width="44" height="44" viewBox="0 0 44 44" fill="none" xmlns="http://www.w3.org/2000/svg">
<path fill-rule="evenodd" clip-rule="evenodd" d="M22 43C33.598 43 43 33.598 43 22C43 10.402 33.598 1 22 1C10.402 1 1 10.402 1 22C1 33.598 10.402 43 22 43Z" stroke="#67A1D6" stroke-width="1.11765" class="border"/>
<path d="M33 15.1309C32.2191 15.4923 31.3869 15.7318 30.5194 15.8482C31.4119 15.286 32.0931 14.4026 32.4133 13.3378C31.5812 13.8612 30.6624 14.2309 29.6833 14.4372C28.8932 13.5497 27.7671 13 26.5386 13C24.1551 13 22.2362 15.0409 22.2362 17.5429C22.2362 17.9029 22.2651 18.2491 22.3359 18.5786C18.7568 18.3945 15.5897 16.5848 13.4621 13.828C13.0907 14.5078 12.8728 15.286 12.8728 16.1237C12.8728 17.6966 13.6406 19.0909 14.7851 19.8982C14.0934 19.8843 13.4149 19.6725 12.84 19.3388C12.84 19.3526 12.84 19.3706 12.84 19.3886C12.84 21.5957 14.3323 23.4289 16.2892 23.8512C15.9388 23.9523 15.5569 24.0008 15.1605 24.0008C14.8849 24.0008 14.6066 23.9842 14.3454 23.9232C14.9032 25.7218 16.4861 27.0442 18.3682 27.0871C16.9035 28.2958 15.0437 29.0242 13.0303 29.0242C12.6773 29.0242 12.3386 29.0075 12 28.9618C13.9071 30.2592 16.1672 31 18.6045 31C26.5267 31 30.858 24.0769 30.858 18.076C30.858 17.8752 30.8514 17.6814 30.8423 17.4889C31.6967 16.8492 32.4146 16.0503 33 15.1309Z" fill="#67A1D6" class="icon"/>
</svg>
