<svg width="136" height="105" viewBox="0 0 136 105" fill="none" xmlns="http://www.w3.org/2000/svg">
<path fill-rule="evenodd" clip-rule="evenodd" d="M38 105C58.9868 105 76 87.9868 76 67C76 46.0132 58.9868 29 38 29C17.0132 29 0 46.0132 0 67C0 87.9868 17.0132 105 38 105Z" fill="#F5C93C"/>
<path d="M65.8244 0H39.5085C38.5401 0 37.7542 0.784852 37.7542 1.75422V28.0701C37.7542 29.0395 38.5401 29.8244 39.5085 29.8244H65.8244C66.7927 29.8244 67.5786 29.0395 67.5786 28.0701V1.75422C67.5786 0.784852 66.7927 0 65.8244 0ZM64.0696 26.3159H41.2627V3.50896H64.0696V26.3159V26.3159Z" fill="#2F2E41"/>
<path d="M57.7435 7.15975C56.8512 6.77272 55.8207 7.18853 55.4399 8.08184L51.1969 17.9791L49.5208 16.3035C48.8357 15.6184 47.725 15.6184 47.0403 16.3035C46.3552 16.9886 46.3552 18.0994 47.0403 18.784L50.5493 22.293C50.8819 22.6255 51.329 22.8069 51.7895 22.8069C51.9001 22.8069 52.0106 22.7967 52.1211 22.7761C52.6931 22.6646 53.1727 22.2786 53.4019 21.743L58.6651 9.4624C59.046 8.57269 58.6337 7.54216 57.7435 7.15975Z" fill="#2F2E41"/>
<path d="M65.8244 35.0881H39.5085C38.5401 35.0881 37.7542 35.8729 37.7542 36.8423V63.1582C37.7542 64.1276 38.5401 64.9124 39.5085 64.9124H65.8244C66.7927 64.9124 67.5786 64.1271 67.5786 63.1582V36.8423C67.5786 35.8729 66.7927 35.0881 65.8244 35.0881ZM64.0696 61.404H41.2627V38.5965H64.0696V61.404V61.404Z" fill="#2F2E41"/>
<path d="M57.7435 42.2479C56.8512 41.8593 55.8207 42.2767 55.4399 43.17L51.1969 53.0672L49.5208 51.3916C48.8357 50.7065 47.725 50.7065 47.0403 51.3916C46.3552 52.0768 46.3552 53.1875 47.0403 53.8721L50.5493 57.3811C50.8819 57.7136 51.329 57.895 51.7895 57.895C51.9001 57.895 52.0106 57.8848 52.1211 57.8642C52.6931 57.7527 53.1727 57.3667 53.4019 56.8311L58.6651 44.5505C59.046 43.6608 58.6337 42.6303 57.7435 42.2479Z" fill="#2F2E41"/>
<path d="M65.8244 70.1756H39.5085C38.5401 70.1756 37.7542 70.9604 37.7542 71.9298V98.2457C37.7542 99.2151 38.5401 100 39.5085 100H65.8244C66.7927 100 67.5786 99.2151 67.5786 98.2457V71.9298C67.5786 70.961 66.7927 70.1756 65.8244 70.1756ZM64.0696 96.4915H41.2627V73.6846H64.0696V96.4915V96.4915Z" fill="#2F2E41"/>
<path d="M128.983 1.75421H76.3507C75.3824 1.75421 74.5965 2.53906 74.5965 3.50844C74.5965 4.47781 75.3824 5.26266 76.3507 5.26266H128.983C129.951 5.26266 130.737 4.47781 130.737 3.50844C130.737 2.53906 129.951 1.75421 128.983 1.75421Z" fill="#2F2E41"/>
<path d="M111.438 14.0353H76.3507C75.3824 14.0353 74.5965 14.8202 74.5965 15.7896C74.5965 16.7589 75.3824 17.5438 76.3507 17.5438H111.439C112.407 17.5438 113.193 16.7589 113.193 15.7896C113.193 14.8202 112.408 14.0353 111.438 14.0353Z" fill="#2F2E41"/>
<path d="M109.684 36.8423H76.3507C75.3824 36.8423 74.5965 37.6271 74.5965 38.5965C74.5965 39.5659 75.3824 40.3507 76.3507 40.3507H109.684C110.652 40.3507 111.438 39.5659 111.438 38.5965C111.438 37.6271 110.652 36.8423 109.684 36.8423Z" fill="#2F2E41"/>
<path d="M132.492 49.1229H76.3507C75.3824 49.1229 74.5965 49.9077 74.5965 50.8771C74.5965 51.8465 75.3824 52.6313 76.3507 52.6313H132.492C133.46 52.6313 134.246 51.8465 134.246 50.8771C134.246 49.9077 133.46 49.1229 132.492 49.1229Z" fill="#2F2E41"/>
<path d="M97.4035 71.9304H90.3861C89.4177 71.9304 88.6319 72.7152 88.6319 73.6846C88.6319 74.6539 89.4177 75.4388 90.3861 75.4388H97.4035C98.3718 75.4388 99.1577 74.6539 99.1577 73.6846C99.1577 72.7152 98.3718 71.9304 97.4035 71.9304Z" fill="#2F2E41"/>
<path d="M83.3687 71.9304H76.3507C75.3824 71.9304 74.5965 72.7152 74.5965 73.6846C74.5965 74.6539 75.3824 75.4388 76.3507 75.4388H83.3687C84.337 75.4388 85.1229 74.6539 85.1229 73.6846C85.1229 72.7152 84.3365 71.9304 83.3687 71.9304Z" fill="#2F2E41"/>
<path d="M125.474 71.9304H118.456C117.488 71.9304 116.702 72.7152 116.702 73.6846C116.702 74.6539 117.488 75.4388 118.456 75.4388H125.474C126.442 75.4388 127.228 74.6539 127.228 73.6846C127.228 72.7152 126.442 71.9304 125.474 71.9304Z" fill="#2F2E41"/>
<path d="M111.438 71.9304H104.421C103.453 71.9304 102.667 72.7152 102.667 73.6846C102.667 74.6539 103.453 75.4388 104.421 75.4388H111.438C112.407 75.4388 113.193 74.6539 113.193 73.6846C113.193 72.7152 112.408 71.9304 111.438 71.9304Z" fill="#2F2E41"/>
<path d="M83.3687 84.2109H76.3507C75.3824 84.2109 74.5965 84.9958 74.5965 85.9652C74.5965 86.9345 75.3824 87.7194 76.3507 87.7194H83.3687C84.337 87.7194 85.1229 86.9345 85.1229 85.9652C85.1229 84.9958 84.3365 84.2109 83.3687 84.2109Z" fill="#2F2E41"/>
<path d="M97.4035 84.2109H90.3861C89.4177 84.2109 88.6319 84.9958 88.6319 85.9652C88.6319 86.9345 89.4177 87.7194 90.3861 87.7194H97.4035C98.3718 87.7194 99.1577 86.9345 99.1577 85.9652C99.1577 84.9958 98.3718 84.2109 97.4035 84.2109Z" fill="#2F2E41"/>
<path d="M107.93 84.2109H104.421C103.453 84.2109 102.667 84.9958 102.667 85.9652C102.667 86.9345 103.453 87.7194 104.421 87.7194H107.93C108.899 87.7194 109.685 86.9345 109.685 85.9652C109.685 84.9958 108.898 84.2109 107.93 84.2109Z" fill="#2F2E41"/>
</svg>
