<svg width="116" height="114" viewBox="0 0 116 114" fill="none" xmlns="http://www.w3.org/2000/svg">
<path fill-rule="evenodd" clip-rule="evenodd" d="M38 114C58.9868 114 76 96.9868 76 76C76 55.0132 58.9868 38 38 38C17.0132 38 0 55.0132 0 76C0 96.9868 17.0132 114 38 114Z" fill="#F5C93C"/>
<path d="M95.9384 72.3107C99.6128 67.9985 101.855 62.439 101.855 56.4179C101.855 43.0558 90.6536 31.7643 77.2182 31.7383C77.2037 31.7383 77.1892 31.7375 77.1747 31.7375C63.8134 31.7368 52.4944 42.9398 52.4944 56.4179C52.4944 69.8937 63.7508 81.1013 77.1801 81.099C84.605 81.0974 91.3761 77.6657 95.9384 72.3107V72.3107ZM55.4744 57.8827H63.7203C63.8675 61.0108 64.4763 63.8031 65.3308 66.2484C63.1443 67.1982 61.2812 68.3213 59.7499 69.4229C57.3085 66.1599 55.7621 62.191 55.4744 57.8827V57.8827ZM59.7499 43.4136C61.2812 44.5153 63.1443 45.6383 65.3301 46.5882C64.4763 49.0334 63.8675 51.8257 63.7195 54.953H55.4737C55.7621 50.6455 57.3085 46.6767 59.7499 43.4136ZM98.875 54.953H90.6292C90.4819 51.8257 89.8723 49.0334 89.0186 46.5874C91.2052 45.6383 93.0675 44.5153 94.5995 43.4136C97.0409 46.6767 98.5866 50.6455 98.875 54.953ZM87.6964 54.953H78.6396V48.9861C81.4586 48.8533 84.0053 48.3452 86.2751 47.6189C87.0288 49.7917 87.5553 52.2354 87.6964 54.953ZM78.6396 46.0533V36.216C80.5164 37.8998 83.1943 40.7875 85.1581 44.8983C83.2065 45.5033 81.0329 45.9282 78.6396 46.0533ZM75.7099 36.213V46.0533C73.3089 45.9282 71.1292 45.5002 69.1738 44.8922C70 43.1656 71.0239 41.51 72.2461 39.9323C73.4706 38.3522 74.7043 37.1125 75.7099 36.213ZM75.7099 48.9861V54.953H66.6523C66.7812 52.3979 67.2504 49.9474 68.0561 47.6136C70.3304 48.3422 72.8832 48.8533 75.7099 48.9861ZM66.653 57.8827H75.7099V63.8504C72.8908 63.9832 70.3441 64.4913 68.0736 65.2176C67.3198 63.0448 66.7942 60.6011 66.653 57.8827ZM75.7099 66.7832V76.6205C73.8323 74.9367 71.1551 72.049 69.1913 67.9383C71.1422 67.3333 73.3165 66.9083 75.7099 66.7832ZM78.6396 76.6236V66.7832C81.0405 66.9083 83.2202 67.3363 85.1757 67.9444C84.3494 69.6717 83.3255 71.3265 82.1033 72.9042C80.8788 74.4843 79.6451 75.7241 78.6396 76.6236ZM78.6396 63.8504V57.8827H87.6972C87.5675 60.4386 87.099 62.8891 86.2934 65.223C84.019 64.4944 81.4662 63.9832 78.6396 63.8504ZM90.6292 57.8827H98.875C98.5874 62.191 97.0409 66.1599 94.5995 69.4229C93.0675 68.3213 91.2052 67.1982 89.0186 66.2484C89.8723 63.8031 90.4819 61.0108 90.6292 57.8827ZM92.6815 41.1827C91.3547 42.1189 89.764 43.0634 87.9146 43.8713C86.816 41.5116 85.532 39.5623 84.3418 38.0387C83.4713 36.9248 82.6015 35.9673 81.7958 35.1631C86.0057 36.0779 89.7647 38.2141 92.6815 41.1827ZM72.5536 35.1631C71.7479 35.9673 70.8782 36.9248 70.0077 38.0387C68.8175 39.5623 67.5334 41.5116 66.4348 43.8713C64.5854 43.0634 62.9947 42.1189 61.668 41.1827C64.5847 38.2141 68.3437 36.0779 72.5536 35.1631ZM61.6672 71.6538C62.9947 70.7177 64.5854 69.7731 66.4341 68.9652C67.5327 71.325 68.8167 73.2743 70.0077 74.7979C70.8774 75.9117 71.7479 76.8692 72.5536 77.6734C68.3437 76.7586 64.5847 74.6224 61.6672 71.6538ZM81.7958 77.6734C82.6015 76.8692 83.4713 75.9117 84.3418 74.7979C85.532 73.2743 86.816 71.325 87.9146 68.9652C89.7632 69.7731 91.3539 70.7177 92.6815 71.6538C89.7647 74.6224 86.0057 76.7586 81.7958 77.6734V77.6734Z" fill="black"/>
<path d="M60.3184 84.2598C59.5096 84.2598 58.8535 84.9151 58.8535 85.7246C58.8535 86.5333 59.5096 87.1895 60.3184 87.1895H94.0304C94.8398 87.1895 95.4952 86.5333 95.4952 85.7246C95.4952 84.9151 94.8398 84.2598 94.0304 84.2598H60.3184Z" fill="black"/>
<path d="M101.123 0C100.602 0 100.078 0.0556945 99.5632 0.164795L39.6968 12.8654C39.0293 12.9921 38.5234 13.6276 38.5234 14.3013V76.4038C38.5234 77.2125 39.1796 77.8687 39.9883 77.8687C40.797 77.8687 41.4531 77.2125 41.4531 76.4038V15.7661H107.099C110.295 15.7661 112.896 18.367 112.896 21.5637V29.9194C112.896 30.7289 113.552 31.3843 114.36 31.3843C115.17 31.3843 115.825 30.7289 115.825 29.9194V21.5637C115.825 17.2508 112.68 13.6612 108.564 12.9616V7.45544C108.564 3.34473 105.226 0 101.123 0V0ZM53.9508 12.8365L100.171 3.0304C102.945 2.44217 105.634 4.61731 105.634 7.45544V12.8365H53.9508Z" fill="black"/>
<path d="M38.5234 92.1432C38.5234 96.4752 42.0482 100 46.381 100H107.099C111.911 100 115.825 96.0854 115.825 91.2727V35.7788C115.825 34.9701 115.17 34.314 114.36 34.314C113.552 34.314 112.896 34.9701 112.896 35.7788V91.2727C112.896 94.4695 110.295 97.0703 107.099 97.0703H46.381C43.6634 97.0703 41.4531 94.8601 41.4531 92.1432V82.2632C41.4531 81.4545 40.7978 80.7983 39.9883 80.7983C39.1796 80.7983 38.5234 81.4545 38.5234 82.2632V92.1432Z" fill="black"/>
</svg>
