<svg width="44" height="44" viewBox="0 0 44 44" fill="none" xmlns="http://www.w3.org/2000/svg">
<path fill-rule="evenodd" clip-rule="evenodd" d="M22 43C33.598 43 43 33.598 43 22C43 10.402 33.598 1 22 1C10.402 1 1 10.402 1 22C1 33.598 10.402 43 22 43Z" stroke="#67A1D6" stroke-width="1.11765" class="border"/>
<path d="M27.5481 11.0044L24.6699 11C21.4362 11 19.3465 13.0285 19.3465 16.1681V18.551H16.4526C16.2025 18.551 16 18.7428 16 18.9794V22.4319C16 22.6685 16.2027 22.8601 16.4526 22.8601H19.3465V31.5718C19.3465 31.8084 19.549 32 19.7991 32H23.5749C23.825 32 24.0275 31.8082 24.0275 31.5718V22.8601H27.4112C27.6613 22.8601 27.8638 22.6685 27.8638 22.4319L27.8652 18.9794C27.8652 18.8658 27.8174 18.757 27.7326 18.6766C27.6479 18.5962 27.5324 18.551 27.4123 18.551H24.0275V16.531C24.0275 15.5601 24.272 15.0673 25.6087 15.0673L27.5477 15.0666C27.7975 15.0666 28 14.8748 28 14.6384V11.4326C28 11.1964 27.7977 11.0048 27.5481 11.0044Z" fill="#67A1D6" class="icon"/>
</svg>
