<svg width="44" height="44" viewBox="0 0 44 44" fill="none" xmlns="http://www.w3.org/2000/svg">
<path fill-rule="evenodd" clip-rule="evenodd" d="M27.082 14C29.8821 14 31.3484 14.3975 32.1426 15.373C32.9404 16.3535 33 17.8545 33 20.0322V23.9678C33 26.4639 32.6191 27.9053 31.7263 28.7881C30.856 29.6484 29.5103 30 27.082 30H16.9177C11.9153 30 11 27.9688 11 23.9678V20.0322C11 17.9668 11 16.4746 11.7712 15.4619C12.5625 14.4238 14.0535 14 16.9177 14H27.082ZM20.5083 25.0371L25.124 22.5439C25.3584 22.417 25.5054 22.166 25.5049 21.8926C25.5046 21.6191 25.3572 21.3691 25.1223 21.2432L20.5068 18.7666C20.2869 18.6484 20.0232 18.6572 19.8113 18.79C19.6924 18.8643 19.5996 18.9727 19.5408 19.0977C19.4949 19.1953 19.47 19.3047 19.47 19.417V24.3867C19.47 24.6436 19.5996 24.8809 19.812 25.0137C19.9248 25.085 20.052 25.1201 20.1797 25.1201C20.2922 25.1201 20.4053 25.0928 20.5083 25.0371Z" fill="#67A1D6"/>
<path fill-rule="evenodd" clip-rule="evenodd" d="M22 43C33.598 43 43 33.598 43 22C43 10.402 33.598 1 22 1C10.402 1 1 10.402 1 22C1 33.598 10.402 43 22 43Z" stroke="#67A1D6" stroke-width="1.11765"/>
</svg>
