<svg width="132" height="119" viewBox="0 0 132 119" fill="none" xmlns="http://www.w3.org/2000/svg">
<path fill-rule="evenodd" clip-rule="evenodd" d="M38 119C58.9868 119 76 101.987 76 81C76 60.0132 58.9868 43 38 43C17.0132 43 0 60.0132 0 81C0 101.987 17.0132 119 38 119Z" fill="#F5C93C"/>
<path d="M130.047 40.7713H117.547C116.468 40.7713 115.594 41.6459 115.594 42.7244V52.5877C115.594 53.6662 116.468 54.5408 117.547 54.5408C118.626 54.5408 119.5 53.6662 119.5 52.5877V44.6775H128.094V96.0938H123.797H119.5V67.2361C119.5 66.1576 118.626 65.283 117.547 65.283C116.468 65.283 115.594 66.1576 115.594 67.2361V96.0938H111.688V55.6641C111.688 54.5855 110.813 53.7109 109.734 53.7109H97.2344C96.1557 53.7109 95.2812 54.5855 95.2812 55.6641V96.0938H91.375V69.3359C91.375 68.2574 90.5006 67.3828 89.4219 67.3828H76.9219C75.8432 67.3828 74.9688 68.2574 74.9688 69.3359V96.0938H71.0625V80.542C71.0625 79.4635 70.1881 78.5889 69.1094 78.5889H56.6094C55.5307 78.5889 54.6562 79.4635 54.6562 80.542V96.0938H37.8594C36.7824 96.0938 35.9062 95.2176 35.9062 94.1406V5.85938C35.9062 4.78242 36.7824 3.90625 37.8594 3.90625H88.2451V16.7975C88.2451 20.0283 90.8736 22.6568 94.1045 22.6568H106.995V46.6797C106.995 47.7582 107.87 48.6328 108.948 48.6328C110.027 48.6328 110.901 47.7582 110.901 46.6797V20.7037C110.901 20.1857 110.696 19.6891 110.329 19.3227L91.5793 0.57207C91.2129 0.205859 90.7162 0 90.1982 0H37.8594C34.6285 0 32 2.62852 32 5.85938V94.1406C32 97.3715 34.6285 100 37.8594 100H130.047C131.126 100 132 99.1254 132 98.0469V42.7244C132 41.6459 131.126 40.7713 130.047 40.7713ZM92.1514 6.66855L104.233 18.7506H94.1045C93.0273 18.7506 92.1514 17.8744 92.1514 16.7975V6.66855ZM67.1562 96.0938H58.5625V82.4951H67.1562V96.0938ZM87.4688 96.0938H78.875V71.2891H87.4688V96.0938ZM107.781 96.0938H99.1875V57.6172H107.781V96.0938Z" fill="#3E3D53"/>
<path d="M118.928 58.168C118.564 57.8029 118.061 57.5957 117.547 57.5957C117.033 57.5957 116.529 57.8029 116.166 58.168C115.803 58.5312 115.594 59.0352 115.594 59.5488C115.594 60.0625 115.803 60.5664 116.166 60.9297C116.529 61.2928 117.033 61.502 117.547 61.502C118.061 61.502 118.564 61.293 118.928 60.9297C119.291 60.5664 119.5 60.0625 119.5 59.5488C119.5 59.0352 119.291 58.5312 118.928 58.168Z" fill="#3E3D53"/>
<path d="M60.433 10.6893C59.3543 10.6893 58.4799 11.5639 58.4799 12.6424V16.1559C49.4894 17.1318 42.4691 24.7686 42.4691 34.0143C42.4691 43.9195 50.5277 51.9781 60.433 51.9781C69.6787 51.9781 77.3154 44.958 78.2914 35.9674H81.8047C82.8834 35.9674 83.7578 35.0928 83.7578 34.0143C83.7578 21.1527 73.2943 10.6893 60.433 10.6893ZM60.433 48.0717C52.6816 48.0717 46.3754 41.7654 46.3754 34.0141C46.3754 26.9256 51.6498 21.0455 58.4799 20.0918V34.0141C58.4799 35.0926 59.3543 35.9672 60.433 35.9672H74.3553C73.4016 42.7973 67.5215 48.0717 60.433 48.0717ZM62.3861 32.0611V32.0609V14.693C71.5369 15.6113 78.8357 22.9104 79.7541 32.0611H62.3861Z" fill="#3E3D53"/>
<path d="M81.8047 57.4707H44.5C43.4213 57.4707 42.5469 58.3453 42.5469 59.4238C42.5469 60.5023 43.4213 61.377 44.5 61.377H81.8047C82.8834 61.377 83.7578 60.5023 83.7578 59.4238C83.7578 58.3453 82.8834 57.4707 81.8047 57.4707Z" fill="#3E3D53"/>
<path d="M57 66.8945H44.5C43.4213 66.8945 42.5469 67.7691 42.5469 68.8477C42.5469 69.9262 43.4213 70.8008 44.5 70.8008H57C58.0787 70.8008 58.9531 69.9262 58.9531 68.8477C58.9531 67.7691 58.0787 66.8945 57 66.8945Z" fill="#3E3D53"/>
<path d="M68.1621 67.4668C67.7988 67.1035 67.2949 66.8945 66.7812 66.8945C66.2656 66.8945 65.7637 67.1033 65.4004 67.4668C65.0352 67.8301 64.8281 68.334 64.8281 68.8477C64.8281 69.3613 65.0352 69.8652 65.4004 70.2283C65.7637 70.5916 66.2656 70.8008 66.7812 70.8008C67.2949 70.8008 67.7988 70.5918 68.1621 70.2283C68.5254 69.8652 68.7344 69.3613 68.7344 68.8477C68.7344 68.334 68.5254 67.8301 68.1621 67.4668Z" fill="#3E3D53"/>
</svg>
