<svg width="100" height="70" viewBox="0 0 100 70" fill="none" xmlns="http://www.w3.org/2000/svg">
<path d="M63.9344 29.3023H49.3967C49.1886 21.2378 42.5452 14.8077 34.4213 14.8077C26.2974 14.8077 19.654 21.2378 19.4459 29.3023H4.91803C4.91803 13.1191 18.1293 0 34.4262 0C50.7232 0 63.9344 13.1191 63.9344 29.3023Z" fill="url(#paint0_linear)"/>
<path d="M4.91803 39.8837H7.10801V47.6299L11.0539 43.4663H13.7963L9.98852 47.3394L13.9344 52.907H11.34L8.44962 48.8209L7.10801 50.1958V52.8876H4.91803V39.8837Z" fill="white"/>
<path fill-rule="evenodd" clip-rule="evenodd" d="M20.6967 52.3544V53.514L22.9508 53.553V47.9497C22.9508 45.4258 21.5164 43.9543 18.5758 43.9543C17.2652 43.9367 15.9679 44.2068 14.7848 44.7436L15.4098 46.4782C16.3042 46.0901 17.2751 45.8874 18.2582 45.8838C19.8361 45.8838 20.707 46.6049 20.707 47.9107V48.0861C19.8209 47.8117 18.8928 47.68 17.9611 47.6963C15.6455 47.6963 13.9344 48.7 13.9344 50.7952C13.9344 52.7442 15.5943 53.7186 17.4795 53.7186C18.7156 53.7593 19.9024 53.256 20.6967 52.3544ZM18.5041 49.1775C19.2732 49.1767 20.0363 49.3054 20.7582 49.5576L20.7889 50.1228C20.7889 51.2629 19.6619 52.0718 18.1558 52.0718C17.0799 52.0718 16.2295 51.6235 16.2295 50.6782C16.2295 49.733 17.0697 49.1775 18.5041 49.1775Z" fill="white"/>
<path d="M24.5901 52.1819L30.032 45.7541H24.7939V43.9535H32.7869V45.4925L27.345 51.8902H32.7869V53.7209H24.5901V52.1819Z" fill="white"/>
<path fill-rule="evenodd" clip-rule="evenodd" d="M40.3689 52.3544V53.514L42.623 53.553V47.9497C42.623 45.4258 41.1885 43.9543 38.248 43.9543C36.9373 43.9367 35.64 44.2068 34.457 44.7436L35.082 46.4782C35.9763 46.0901 36.9473 45.8874 37.9303 45.8838C39.5082 45.8838 40.3791 46.6049 40.3791 47.9107V48.0861C39.493 47.8117 38.5649 47.68 37.6332 47.6963C35.3176 47.6963 33.6066 48.7 33.6066 50.7952C33.6066 52.7442 35.2664 53.7186 37.1516 53.7186C38.3877 53.7593 39.5745 53.256 40.3689 52.3544ZM38.1557 49.1775C38.9317 49.1744 39.702 49.3031 40.4303 49.5576L40.4406 50.1228C40.4406 51.2629 39.3135 52.0718 37.8074 52.0718C36.7315 52.0718 35.8811 51.6235 35.8811 50.6782C35.8811 49.733 36.7213 49.1775 38.1557 49.1775Z" fill="white"/>
<path d="M45.082 39.8837H47.2913V47.6241L51.272 43.4637H53.959L50.1176 47.3339L54.0984 52.8973H51.5606L48.6547 48.8433L47.3012 50.2172V52.907H45.082V39.8837Z" fill="white"/>
<path d="M54.918 39.8837H57V44.9456C57.5892 43.9183 58.6584 43.2881 59.8136 43.2874C61.8956 43.2874 63.1148 44.7226 63.1148 46.9142V52.907H61.0046V47.5542C61.0046 46.0899 60.3012 45.2559 59.0539 45.2559C58.4686 45.2435 57.9066 45.4934 57.5129 45.9414C57.1192 46.3894 56.9321 46.9917 57 47.593V52.907H54.918V39.8837Z" fill="white"/>
<path d="M64.7541 52.3506L65.706 50.883C66.5674 51.5913 67.628 51.9999 68.7329 52.0493C69.6848 52.0493 70.1703 51.6605 70.1703 50.9997C70.1703 50.3388 69.2755 50.0278 68.2665 49.7459L68.1047 49.6876C66.7435 49.2794 65.2491 48.7157 65.2491 46.8691C65.2491 45.0226 66.7054 43.9535 68.5426 43.9535C69.7514 43.9753 70.9295 44.3459 71.9408 45.0226L71.1031 46.5581C70.3247 46.0334 69.4257 45.7252 68.495 45.664C67.6764 45.664 67.2004 46.0528 67.2004 46.6359C67.2004 47.219 68.0952 47.6078 69.1042 47.9091L69.2755 47.9674C70.6272 48.395 72.1311 49.017 72.1311 50.7567C72.1311 52.7005 70.6272 53.7209 68.7044 53.7209C67.2758 53.7204 65.8873 53.2387 64.7541 52.3506H64.7541Z" fill="white"/>
<path d="M74.9351 50.9453V45.9705H73.7705V44.111H74.9351V41.5116H77.037V44.111H79.5082V45.9705H77.0465V50.6046C76.9982 50.9279 77.1018 51.2557 77.3259 51.488C77.5499 51.7203 77.8678 51.8296 78.1827 51.7826C78.6369 51.7844 79.085 51.6743 79.4893 51.4613V53.2331C78.9121 53.5676 78.2579 53.7357 77.5956 53.7199C76.0334 53.7199 74.9351 53.019 74.9351 50.9453Z" fill="white"/>
<path fill-rule="evenodd" clip-rule="evenodd" d="M87.9098 52.3544V53.514L90.1639 53.553V47.9497C90.1639 45.4258 88.7295 43.9543 85.7889 43.9543C84.4783 43.9367 83.181 44.2068 81.9979 44.7436L82.6229 46.4782C83.5173 46.0901 84.4882 45.8874 85.4713 45.8838C87.0492 45.8838 87.9201 46.6049 87.9201 47.9107V48.0861C87.034 47.8117 86.1059 47.68 85.1742 47.6963C82.8586 47.6963 81.1475 48.7 81.1475 50.7952C81.1475 52.7442 82.8074 53.7186 84.6926 53.7186C85.9287 53.7593 87.1155 53.256 87.9098 52.3544ZM85.6967 49.1775C86.4726 49.1744 87.2429 49.3031 87.9713 49.5576L88.0123 50.1228C88.0123 51.2629 86.8852 52.0718 85.3791 52.0718C84.3033 52.0718 83.4529 51.6527 83.4529 50.6782C83.4529 49.7038 84.252 49.1775 85.6967 49.1775Z" fill="white"/>
<path d="M91.8033 44.1506H93.8997V45.6389C94.4929 44.5947 95.5695 43.9542 96.7326 43.9535C98.8007 43.9535 100 45.4023 100 47.6298V53.7209H97.9036V48.2803C97.9036 46.7921 97.1954 45.9444 95.9394 45.9444C95.35 45.9317 94.7842 46.1858 94.3878 46.6412C93.9913 47.0965 93.803 47.7086 93.8714 48.3198V53.7209H91.8033V44.1506Z" fill="white"/>
<path d="M0 67.5581H2.45902V70H0V67.5581Z" fill="white"/>
<path d="M4.44327 67.2146V62.2398H3.27869V60.3803H4.44327V57.7907H6.5452V60.3901H9.01639V62.2496H6.5452V66.8836C6.49688 67.207 6.60053 67.5348 6.82457 67.7671C7.04862 67.9993 7.36651 68.1086 7.68138 68.0616C8.13563 68.0635 8.5837 67.9533 8.98799 67.7404V69.5122C8.41084 69.8466 7.75665 70.0148 7.09435 69.999C5.51317 69.9893 4.44327 69.298 4.44327 67.2146Z" fill="white"/>
<path d="M11.4754 60.4144H13.7259V62.5763C14.2133 61.1197 15.6418 60.1613 17.2131 60.2367V62.5566H17.0813C15.1046 62.5566 13.7259 63.8103 13.7259 66.3474V70H11.4754V60.4144Z" fill="white"/>
<path fill-rule="evenodd" clip-rule="evenodd" d="M23.9677 68.6293V69.8315L26.2295 69.8609V64.2407C26.2295 61.7092 24.7967 60.2334 21.8595 60.2334C20.5503 60.2157 19.2545 60.4866 18.0728 61.0251L18.6971 62.7649C19.5849 62.3668 20.5513 62.1535 21.532 62.1393C23.108 62.1393 23.978 62.8626 23.978 64.1723V64.3483C23.0929 64.073 22.1658 63.9409 21.2352 63.9573C18.9222 63.9573 17.2131 64.964 17.2131 67.0655C17.2131 69.0203 18.8711 69.9977 20.7542 69.9977C21.9888 70.0384 23.1743 69.5337 23.9677 68.6293ZM21.7571 65.4821C22.5322 65.4789 23.3016 65.608 24.0292 65.8632L23.9882 66.4399C23.9882 67.5835 22.8624 68.3947 21.358 68.3947C20.3346 68.3947 19.4851 67.9354 19.4851 66.9873C19.4851 66.0392 20.3243 65.4821 21.7571 65.4821Z" fill="white"/>
<path d="M27.0492 60.2325H29.3717L31.9623 67.3534L34.5726 60.2325H36.8853L32.9151 70H30.93L27.0492 60.2325Z" fill="white"/>
<path fill-rule="evenodd" clip-rule="evenodd" d="M38.135 61.7003C37.2774 62.619 36.8284 63.8478 36.891 65.105C36.8299 66.3933 37.3025 67.6497 38.1967 68.5762C39.0909 69.5027 40.3271 70.0168 41.6122 69.9967C43.0954 70.0518 44.5176 69.4024 45.4506 68.2442L44.2319 67.1176C43.5867 67.8323 42.6693 68.2384 41.7082 68.2346C40.3314 68.2812 39.1572 67.2423 39.0309 65.8657H45.9016V65.2591C45.9016 62.5725 44.4047 60.2325 41.4395 60.2325C40.1852 60.2519 38.9926 60.7816 38.135 61.7003ZM41.4299 61.9851C42.758 62.0167 43.812 63.1173 43.7905 64.4502H39.0117C39.0459 63.1181 40.1031 62.0404 41.4299 61.9851Z" fill="white"/>
<path d="M47.541 56.9767H50V70H47.541V56.9767Z" fill="white"/>
<defs>
<linearGradient id="paint0_linear" x1="4.91803" y1="0" x2="4.91803" y2="29.3023" gradientUnits="userSpaceOnUse">
<stop stop-color="#FFD245"/>
<stop offset="1" stop-color="#FE7F21"/>
</linearGradient>
</defs>
</svg>
