<svg width="110" height="77" viewBox="0 0 110 77" fill="none" xmlns="http://www.w3.org/2000/svg">
<path d="M70 32H53.9884C53.7591 23.193 46.4422 16.1709 37.4946 16.1709C28.547 16.1709 21.2301 23.193 21.0008 32H5C5 14.3269 19.5508 0 37.5 0C55.4493 0 70 14.3269 70 32Z" fill="url(#paint0_linear)"/>
<path d="M5 44H7.42889V52.3272L11.8053 47.8513H14.8469L10.6237 52.0149L15 58H12.1226L8.91686 53.6075L7.42889 55.0855V57.9792H5V44Z" fill="#07103C"/>
<path fill-rule="evenodd" clip-rule="evenodd" d="M22.5 57.461V58.767L25 58.8108V52.5005C25 49.6581 23.4091 48.0009 20.1477 48.0009C18.6941 47.9811 17.2553 48.2853 15.9432 48.8898L16.6364 50.8433C17.6283 50.4062 18.7052 50.178 19.7955 50.1739C21.5455 50.1739 22.5114 50.986 22.5114 52.4566V52.6541C21.5286 52.3451 20.4993 52.1967 19.4659 52.2151C16.8978 52.2151 15 53.3455 15 55.7051C15 57.9 16.8409 58.9974 18.9318 58.9974C20.3027 59.0431 21.619 58.4764 22.5 57.461ZM20.0682 53.8833C20.9212 53.8824 21.7676 54.0273 22.5682 54.3113L22.6023 54.9479C22.6023 56.2319 21.3523 57.1428 19.6818 57.1428C18.4887 57.1428 17.5455 56.6379 17.5455 55.5734C17.5455 54.5088 18.4773 53.8833 20.0682 53.8833Z" fill="#07103C"/>
<path d="M27 57.2667L32.9752 50.0278H27.2237V48H36V49.7333L30.0249 56.9382H36V59H27V57.2667Z" fill="#07103C"/>
<path fill-rule="evenodd" clip-rule="evenodd" d="M44.5 57.461V58.767L47 58.8108V52.5005C47 49.6581 45.4091 48.0009 42.1477 48.0009C40.6941 47.9811 39.2553 48.2853 37.9432 48.8898L38.6364 50.8433C39.6283 50.4062 40.7052 50.178 41.7955 50.1739C43.5455 50.1739 44.5114 50.986 44.5114 52.4566V52.6541C43.5286 52.3451 42.4993 52.1967 41.4659 52.2151C38.8977 52.2151 37 53.3455 37 55.7051C37 57.9 38.8409 58.9974 40.9318 58.9974C42.3027 59.0431 43.619 58.4764 44.5 57.461ZM42.0455 53.8834C42.9061 53.8798 43.7604 54.0248 44.5682 54.3114L44.5796 54.9479C44.5796 56.2319 43.3296 57.1428 41.6591 57.1428C40.4659 57.1428 39.5228 56.638 39.5228 55.5734C39.5228 54.5089 40.4546 53.8834 42.0455 53.8834Z" fill="#07103C"/>
<path d="M50 44H52.4503V52.321L56.8653 47.8484H59.8455L55.585 52.0089L60 57.9896H57.1854L53.9625 53.6315L52.4614 55.1085V58H50V44Z" fill="#07103C"/>
<path d="M60 44H62.286V49.4416C62.9329 48.3371 64.107 47.6597 65.3753 47.659C67.6613 47.659 69 49.2018 69 51.5577V58H66.6831V52.2457C66.6831 50.6716 65.9108 49.7751 64.5412 49.7751C63.8985 49.7617 63.2815 50.0304 62.8492 50.512C62.4169 50.9937 62.2115 51.6411 62.286 52.2874V58H60V44Z" fill="#07103C"/>
<path d="M71 57.4567L72.0323 55.804C72.9664 56.6016 74.1166 57.0618 75.3148 57.1174C76.3471 57.1174 76.8735 56.6796 76.8735 55.9353C76.8735 55.191 75.9032 54.8408 74.809 54.5234L74.6335 54.4577C73.1574 53.998 71.5368 53.3632 71.5368 51.2836C71.5368 49.204 73.1161 48 75.1084 48C76.4193 48.0246 77.6969 48.442 78.7935 49.204L77.8852 50.9333C77.0411 50.3424 76.0661 49.9953 75.0568 49.9264C74.169 49.9264 73.6529 50.3642 73.6529 51.0209C73.6529 51.6776 74.6232 52.1154 75.7174 52.4547L75.9032 52.5204C77.369 53.002 79 53.7025 79 55.6617C79 57.8507 77.369 59 75.2839 59C73.7347 58.9994 72.2289 58.4569 71 57.4567H71Z" fill="#07103C"/>
<path d="M82.2178 56.0446V50.7476H81V48.7677H82.2178V46H84.4158V48.7677H87V50.7476H84.4257V55.6818C84.3752 56.0261 84.4836 56.3751 84.7179 56.6224C84.9522 56.8697 85.2846 56.9861 85.6139 56.9361C86.0889 56.9381 86.5574 56.8208 86.9802 56.594V58.4806C86.3767 58.8367 85.6926 59.0157 85 58.9989C83.3663 58.9989 82.2178 58.2526 82.2178 56.0446Z" fill="#07103C"/>
<path fill-rule="evenodd" clip-rule="evenodd" d="M96.5 57.461V58.767L99 58.8108V52.5005C99 49.6581 97.4091 48.0009 94.1477 48.0009C92.6941 47.9811 91.2553 48.2853 89.9432 48.8898L90.6364 50.8433C91.6283 50.4062 92.7052 50.178 93.7955 50.1739C95.5455 50.1739 96.5114 50.986 96.5114 52.4566V52.6541C95.5286 52.3451 94.4993 52.1967 93.4659 52.2151C90.8977 52.2151 89 53.3455 89 55.7051C89 57.9 90.8409 58.9974 92.9318 58.9974C94.3027 59.0431 95.619 58.4764 96.5 57.461ZM94.0455 53.8834C94.9061 53.8798 95.7604 54.0248 96.5682 54.3114L96.6136 54.9479C96.6136 56.2319 95.3636 57.1428 93.6932 57.1428C92.5 57.1428 91.5568 56.6709 91.5568 55.5734C91.5568 54.476 92.4432 53.8834 94.0455 53.8834Z" fill="#07103C"/>
<path d="M101 48.222H103.302V49.8981C103.953 48.7221 105.135 48.0008 106.412 48C108.683 48 110 49.6317 110 52.1403V59H107.698V52.8729C107.698 51.1968 106.92 50.2422 105.541 50.2422C104.894 50.2279 104.273 50.514 103.838 51.0268C103.402 51.5396 103.196 52.229 103.271 52.9173V59H101V48.222Z" fill="#07103C"/>
<path d="M0 74H3.00003V77H0V74Z" fill="#07103C"/>
<path d="M5.21785 74.0342V68.7372H4.00003V66.7573H5.21785V64H7.41587V66.7677H10V68.7476H7.41587V73.6818C7.36534 74.0261 7.47373 74.3751 7.70802 74.6224C7.9423 74.8698 8.27473 74.9861 8.60399 74.9361C9.07901 74.9381 9.54756 74.8208 9.97033 74.594V76.4806C9.3668 76.8367 8.68271 77.0157 7.99013 76.9989C6.33666 76.9885 5.21785 76.2526 5.21785 74.0342Z" fill="#07103C"/>
<path d="M13 66.2048H15.3534V68.6395C15.8631 66.9991 17.3569 65.9198 19 66.0047V68.6173H18.8622C16.7951 68.6173 15.3534 70.0293 15.3534 72.8865V77H13V66.2048Z" fill="#07103C"/>
<path fill-rule="evenodd" clip-rule="evenodd" d="M26.4915 75.4564V76.8103L29 76.8433V70.514C29 67.663 27.4109 66.0009 24.1532 66.0009C22.7012 65.981 21.2641 66.2861 19.9535 66.8925L20.6459 68.8519C21.6306 68.4036 22.7023 68.1634 23.79 68.1474C25.538 68.1474 26.5028 68.9619 26.5028 70.4369V70.6351C25.5212 70.3251 24.493 70.1763 23.4608 70.1948C20.8956 70.1948 19 71.3286 19 73.6952C19 75.8967 20.8388 76.9974 22.9274 76.9974C24.2967 77.0433 25.6115 76.4749 26.4915 75.4564ZM24.0397 71.9119C24.8993 71.9084 25.7527 72.0538 26.5596 72.3412L26.5142 72.9907C26.5142 74.2786 25.2656 75.1922 23.597 75.1922C22.462 75.1922 21.5198 74.6748 21.5198 73.6071C21.5198 72.5394 22.4506 71.9119 24.0397 71.9119Z" fill="#07103C"/>
<path d="M30 66H32.5974L35.4945 74.0194L38.4137 66H41L36.56 77H34.3401L30 66Z" fill="#07103C"/>
<path fill-rule="evenodd" clip-rule="evenodd" d="M42.3861 67.653C41.4349 68.6876 40.937 70.0715 41.0064 71.4873C40.9386 72.9382 41.4627 74.3531 42.4545 75.3965C43.4462 76.4399 44.8173 77.019 46.2427 76.9963C47.8876 77.0583 49.465 76.327 50.4998 75.0226L49.1482 73.7538C48.4325 74.5588 47.415 75.0161 46.3491 75.0118C44.8221 75.0643 43.5198 73.8943 43.3798 72.3441H51V71.6608C51 68.6352 49.3397 66 46.0511 66C44.66 66.0218 43.3372 66.6183 42.3861 67.653ZM46.0405 67.9739C47.5134 68.0094 48.6824 69.249 48.6586 70.7501H43.3585C43.3964 69.2498 44.5689 68.0361 46.0405 67.9739Z" fill="#07103C"/>
<path d="M52 63H55V77H52V63Z" fill="#07103C"/>
<defs>
<linearGradient id="paint0_linear" x1="5" y1="0" x2="5" y2="32" gradientUnits="userSpaceOnUse">
<stop stop-color="#FFD245"/>
<stop offset="1" stop-color="#FE7F21"/>
</linearGradient>
</defs>
</svg>
